<?xml version="1.0" encoding="UTF-8"?>
<svg id="Ebene_1" data-name="Ebene 1" xmlns="http://www.w3.org/2000/svg" viewBox="0 0 600 600">
  <defs>
    <style>
      .cls-1, .cls-2, .cls-3, .cls-4, .cls-5, .cls-6 {
        fill: none;
      }

      .cls-1, .cls-7, .cls-8, .cls-9, .cls-10, .cls-11, .cls-12, .cls-13, .cls-14, .cls-15, .cls-16 {
        stroke-width: 0px;
      }

      .cls-2 {
        stroke: #84a6ff;
      }

      .cls-2, .cls-3, .cls-4, .cls-5, .cls-6 {
        stroke-width: 80px;
      }

      .cls-3 {
        stroke: #800020;
      }

      .cls-4 {
        stroke: #fea30c;
      }

      .cls-5 {
        stroke: #ff5b1c;
      }

      .cls-6 {
        stroke: #ac05f1;
      }

      .cls-8 {
        fill: #6e0ff3;
      }

      .cls-9 {
        fill: #3416f2;
      }

      .cls-10 {
        fill: #1c1c1c;
      }

      .cls-11 {
        fill: #ac05f1;
      }

      .cls-12 {
        fill: #84a6ff;
      }

      .cls-13 {
        fill: #fea30c;
      }

      .cls-14 {
        fill: #ff5b1c;
      }

      .cls-15 {
        fill: #740689;
      }

      .cls-16 {
        fill: #fff;
      }
    </style>
  </defs>
  <circle class="cls-2" cx="284.25" cy="161.37" r="108.14"/>
  <path class="cls-16" d="m230.89,67.31l-1.64,1.82-.64,3.82h-2.96l2.32-13.96h2.96l-1,5.98h.16l2.24-2.74,2.64-3.24h3.48l-5.2,6.2,3.1,7.76h-3.28l-2.18-5.64Zm6.71,5.64l1.72-10.32h2.92l-.4,2.46h.1c.39-.84.83-1.5,1.34-1.98.52-.48,1.19-.72,2.02-.72.51,0,.93.08,1.28.24.36.16.65.38.88.66.23.27.39.58.5.94.11.36.16.74.16,1.14,0,.29-.02.59-.06.9-.03.31-.08.7-.16,1.18l-.92,5.5h-2.92l.98-5.86c.03-.19.05-.37.08-.56.04-.2.06-.43.06-.68,0-.13-.02-.27-.06-.42-.04-.15-.11-.28-.2-.4-.09-.12-.22-.21-.38-.28-.15-.08-.33-.12-.56-.12-.35,0-.65.08-.9.24-.25.16-.49.39-.72.7-.15.2-.33.48-.54.84-.2.35-.33.73-.4,1.16l-.9,5.38h-2.92Zm16.79.24c-1.41,0-2.51-.39-3.28-1.18-.77-.8-1.16-1.89-1.16-3.26,0-.99.14-1.87.42-2.66.29-.79.69-1.45,1.2-2,.52-.55,1.13-.97,1.84-1.26.72-.29,1.51-.44,2.38-.44,1.41,0,2.51.4,3.28,1.2.77.79,1.16,1.87,1.16,3.24,0,.99-.15,1.87-.44,2.66-.28.79-.68,1.45-1.2,2-.51.55-1.12.97-1.84,1.26-.71.29-1.49.44-2.36.44Zm.22-2.18c.64,0,1.16-.19,1.56-.58.41-.39.68-.94.8-1.66l.26-1.56c.03-.12.05-.25.06-.4.03-.16.04-.3.04-.42,0-.61-.16-1.07-.48-1.36-.31-.31-.73-.46-1.28-.46-.64,0-1.17.19-1.58.58-.4.39-.66.94-.78,1.66l-.26,1.56c-.03.12-.05.26-.08.42-.01.15-.02.28-.02.4,0,.61.15,1.07.46,1.38.32.29.75.44,1.3.44Zm8.63,2.18c-.67,0-1.15-.2-1.46-.6-.29-.4-.44-.93-.44-1.58,0-.19.01-.47.04-.84.04-.39.09-.74.14-1.06l1.08-6.48h2.36l-1.22,6.58c-.03.11-.05.25-.06.44-.01.19-.02.34-.02.46,0,.21.05.39.14.52.09.12.25.18.48.18.2,0,.38-.07.54-.2.17-.15.33-.34.48-.58.09-.15.17-.33.24-.54.08-.21.13-.43.16-.66l.96-6.2h2.26l-1.08,6.68c-.03.11-.05.25-.08.44-.01.19-.02.33-.02.42,0,.19.04.35.12.5.09.15.25.22.48.22.24,0,.48-.15.72-.44.24-.29.45-.68.62-1.16.19-.49.33-1.05.44-1.68.12-.64.18-1.3.18-1.98,0-.47-.03-.93-.1-1.38-.05-.45-.14-.85-.26-1.18l2.04-.6c.2.37.36.83.48,1.36.13.53.2,1.14.2,1.82,0,1.2-.16,2.31-.48,3.32-.31,1.01-.73,1.86-1.28,2.54-.43.55-.91.97-1.44,1.26-.53.28-1.08.42-1.64.42-.36,0-.67-.06-.92-.18-.24-.12-.44-.28-.6-.48-.15-.2-.25-.43-.32-.7-.05-.27-.07-.55-.06-.84h-.14c-.48,1.47-1.33,2.2-2.54,2.2Zm15.23,0c-.83,0-1.44-.21-1.84-.64-.4-.44-.6-1.03-.6-1.76,0-.23.01-.45.04-.66.03-.21.08-.53.16-.94l1.62-8.76h-3.04l.38-2.28h5.98l-2.34,12.68.3.1,2.8-2.86,1.6,1.42-1.22,1.4c-.68.76-1.32,1.33-1.92,1.72-.59.39-1.23.58-1.92.58Zm12.21,0c-1.53,0-2.67-.39-3.4-1.16-.73-.79-1.1-1.87-1.1-3.24,0-.96.15-1.83.44-2.62.29-.79.7-1.46,1.22-2.02.53-.56,1.17-.99,1.92-1.3.75-.31,1.58-.46,2.5-.46.52,0,1.01.06,1.46.18.47.12.87.3,1.22.54.35.23.62.52.82.88.2.35.3.76.3,1.24,0,.41-.09.83-.26,1.24-.17.41-.51.79-1.02,1.14-.49.33-1.2.62-2.12.86-.91.23-2.09.37-3.56.42-.01.08-.02.15-.02.2v.14c0,.56.15.99.46,1.28.31.29.81.44,1.52.44.28,0,.53-.03.76-.08.24-.05.47-.15.68-.28.23-.15.45-.33.66-.54.23-.23.47-.51.74-.86l1.82,1.18c-.27.39-.56.75-.88,1.1-.31.33-.66.63-1.06.9-.4.25-.85.45-1.36.6-.51.15-1.09.22-1.74.22Zm1.28-8.74c-.64,0-1.19.19-1.64.58-.45.37-.77,1.01-.96,1.9l-.06.28c.92-.05,1.64-.14,2.16-.26.53-.12.93-.26,1.18-.42.27-.16.43-.33.5-.52.07-.19.1-.36.1-.52,0-.69-.43-1.04-1.28-1.04Zm12.43,6.04h-.1c-.2.4-.41.77-.64,1.1-.21.32-.46.6-.74.84-.27.24-.57.43-.92.56-.33.13-.72.2-1.16.2-.55,0-1.01-.09-1.4-.28-.37-.19-.68-.45-.92-.8-.24-.36-.42-.79-.54-1.28-.11-.49-.16-1.04-.16-1.64,0-1.03.11-1.95.34-2.78.23-.84.55-1.55.96-2.14.41-.6.91-1.06,1.48-1.38.59-.33,1.24-.5,1.96-.5.81,0,1.43.19,1.84.58.43.37.71.9.86,1.58h.14l1.06-6.4h2.92l-2.46,14.8h-2.92l.4-2.46Zm-2.26.44c.36,0,.68-.09.96-.26.28-.17.54-.41.78-.72.16-.19.34-.45.54-.78.2-.35.33-.73.4-1.16l.28-1.66c.09-.55,0-.97-.26-1.26-.25-.29-.7-.44-1.34-.44-.72,0-1.27.21-1.66.64-.39.41-.65,1.01-.78,1.8l-.2,1.2c-.03.12-.05.26-.06.42-.01.15-.02.31-.02.48.01.49.11.91.3,1.24.2.33.55.5,1.06.5Zm11.39,6.26c-.96,0-1.77-.1-2.44-.3-.67-.2-1.26-.61-1.78-1.22l1.74-1.8c.32.39.68.66,1.08.82.41.16.85.24,1.32.24.37,0,.71-.04,1-.12.29-.08.55-.23.78-.46.24-.23.44-.54.6-.94.16-.4.29-.91.4-1.54l.3-1.78h-.12c-.19.4-.39.77-.62,1.1-.21.32-.45.6-.72.84-.27.24-.57.43-.92.56-.35.13-.74.2-1.18.2-.56,0-1.03-.1-1.42-.3-.39-.2-.71-.48-.96-.84-.25-.36-.44-.78-.56-1.26-.11-.49-.16-1.03-.16-1.6,0-.93.11-1.79.32-2.58.21-.79.52-1.46.92-2.02.41-.57.91-1.01,1.48-1.32.59-.32,1.24-.48,1.96-.48.84,0,1.47.19,1.88.58.41.37.69.9.84,1.58h.16l.32-1.92h2.92l-1.6,9.6c-.28,1.68-.89,2.93-1.84,3.74-.93.81-2.17,1.22-3.7,1.22Zm.72-6.68c.36,0,.67-.08.94-.24.27-.17.52-.4.76-.68.16-.19.34-.44.54-.76.21-.32.36-.72.44-1.2l.22-1.34c.08-.48,0-.87-.26-1.18-.24-.31-.69-.46-1.34-.46-.75,0-1.31.23-1.7.68-.39.45-.64,1.04-.76,1.76l-.14.84c-.03.12-.05.26-.06.42-.01.16-.02.35-.02.56,0,.44.1.82.3,1.14.21.31.57.46,1.08.46Zm12.41,2.68c-1.53,0-2.67-.39-3.4-1.16-.73-.79-1.1-1.87-1.1-3.24,0-.96.15-1.83.44-2.62.29-.79.7-1.46,1.22-2.02.53-.56,1.17-.99,1.92-1.3.75-.31,1.58-.46,2.5-.46.52,0,1.01.06,1.46.18.47.12.87.3,1.22.54.35.23.62.52.82.88.2.35.3.76.3,1.24,0,.41-.09.83-.26,1.24-.17.41-.51.79-1.02,1.14-.49.33-1.2.62-2.12.86-.91.23-2.09.37-3.56.42-.01.08-.02.15-.02.2v.14c0,.56.15.99.46,1.28.31.29.81.44,1.52.44.28,0,.53-.03.76-.08.24-.05.47-.15.68-.28.23-.15.45-.33.66-.54.23-.23.47-.51.74-.86l1.82,1.18c-.27.39-.56.75-.88,1.1-.31.33-.66.63-1.06.9-.4.25-.85.45-1.36.6-.51.15-1.09.22-1.74.22Zm1.28-8.74c-.64,0-1.19.19-1.64.58-.45.37-.77,1.01-.96,1.9l-.06.28c.92-.05,1.64-.14,2.16-.26.53-.12.93-.26,1.18-.42.27-.16.43-.33.5-.52.07-.19.1-.36.1-.52,0-.69-.43-1.04-1.28-1.04Z"/>
  <circle class="cls-4" cx="253.13" cy="440.97" r="103.02"/>
  <circle class="cls-3" cx="410.43" cy="419.27" r="93.31"/>
  <circle class="cls-5" cx="403.74" cy="255.54" r="91.79"/>
  <path class="cls-16" d="m486.98,196.91l.29-2.91,13.66,3.71-.5,5.01c-.06.61-.21,1.14-.44,1.58-.22.46-.51.83-.88,1.12-.35.29-.76.49-1.23.6-.47.13-.98.16-1.54.11-1.23-.12-2.23-.52-2.98-1.2-.75-.66-1.22-1.53-1.41-2.59l-5.66,1.35.31-3.1,5.33-1.02.13-1.27-5.09-1.39Zm7.2,3.59c-.07.72,0,1.25.2,1.59.21.34.6.59,1.17.74l.47.13c.24.06.45.1.65.12.46.05.81-.06,1.04-.32.24-.26.38-.63.43-1.12l.16-1.65-3.97-1.08-.16,1.59Zm-8.82,10.31c.15-1.53.65-2.62,1.49-3.27.85-.65,1.97-.91,3.33-.77.95.1,1.81.33,2.56.7.75.37,1.38.84,1.89,1.41.51.59.87,1.26,1.1,2.04.23.77.3,1.62.21,2.53-.05.52-.16,1-.32,1.44-.16.45-.38.84-.66,1.16-.26.32-.58.57-.96.73-.37.16-.79.22-1.26.18-.41-.04-.81-.17-1.21-.38-.39-.21-.74-.59-1.03-1.13-.28-.52-.5-1.26-.65-2.19-.14-.93-.16-2.12-.07-3.58-.08-.02-.14-.04-.2-.04-.04,0-.09,0-.14-.01-.56-.05-1,.06-1.32.33-.32.28-.52.77-.59,1.47-.03.28-.03.53,0,.76.03.24.1.48.21.7.12.24.28.48.47.71.2.25.46.52.78.82l-1.35,1.69c-.36-.3-.69-.63-1.01-.98-.3-.34-.57-.72-.79-1.14-.21-.42-.37-.89-.46-1.41-.1-.52-.11-1.1-.05-1.75Zm8.57,2.14c.06-.64-.08-1.2-.42-1.69-.33-.49-.93-.87-1.8-1.14l-.27-.09c-.04.92-.02,1.64.05,2.18.07.54.17.95.3,1.21.13.28.29.46.47.55.18.09.35.13.51.15.69.07,1.08-.32,1.16-1.17Zm-9.71,9.34c.1-1.04.33-1.92.68-2.65.37-.71.84-1.22,1.42-1.51l1.45,1.79c-.44.25-.79.62-1.05,1.1-.25.5-.41,1.05-.47,1.66-.06.6-.01,1.08.14,1.44.16.38.43.59.8.62.28.03.49-.05.63-.24.15-.18.28-.43.37-.73l.46-1.44c.12-.38.26-.73.43-1.06.17-.32.37-.59.6-.82.25-.23.54-.4.88-.52.33-.1.72-.13,1.17-.08.57.06,1.06.22,1.48.49.43.28.77.64,1.02,1.09.26.45.44.97.53,1.56.1.59.12,1.21.05,1.88-.09.92-.3,1.73-.64,2.43-.33.71-.73,1.21-1.21,1.51l-1.47-1.75c.31-.2.59-.51.84-.94.24-.43.39-.94.45-1.52.05-.52,0-.95-.15-1.28-.15-.32-.42-.5-.79-.54-.28-.03-.49.04-.62.2-.12.18-.24.42-.33.73l-.49,1.5c-.27.84-.64,1.49-1.1,1.94-.46.45-1.11.63-1.94.55-.57-.06-1.07-.23-1.5-.51-.41-.28-.76-.66-1.03-1.13-.26-.47-.45-1.02-.56-1.66-.1-.63-.11-1.32-.03-2.09Zm-1.22,12.33c.09-.88.38-1.5.89-1.86.5-.35,1.14-.49,1.91-.41.19.02.37.04.56.07.2.05.44.11.74.19l4.31,1.17.26-2.63,2.23.6-.16,1.65c-.04.43.01.75.16.98.15.24.45.42.89.53l2.39.64-.27,2.71-3.56-.96-.4,4.02-2.23-.6.4-4.02-5.64-1.52-.18.38,2.14,3.35-1.78,1.27-.92-1.3c-.32-.46-.6-.88-.84-1.25-.23-.37-.42-.73-.58-1.06-.14-.32-.24-.64-.29-.95-.06-.31-.08-.65-.04-1.01Zm10.56,14.32c.06-.6.21-1.01.46-1.24.26-.21.57-.31.91-.27.07,0,.15.02.26.04.12.02.29.07.53.13.42.11.73.32.92.63.2.31.27.77.21,1.37-.06.6-.22,1-.48,1.22-.25.23-.55.33-.89.29-.07,0-.16-.02-.28-.05-.11-.02-.27-.07-.51-.13-.42-.11-.73-.32-.92-.63-.2-.31-.27-.77-.21-1.37Zm-11.78-1.99c.08-.82.36-1.42.82-1.79.48-.37,1.08-.52,1.81-.44.23.02.44.06.65.1.21.05.52.13.92.25l4.18,1.22.31-3.1,2.23.6-.6,6.05-8.01-2.34-.13.33,2.57,3.07-1.57,1.45-1.27-1.35c-.69-.75-1.2-1.45-1.52-2.08-.33-.62-.46-1.28-.39-1.97Zm-1.14,11.54c.09-.88.38-1.5.89-1.86.5-.35,1.14-.49,1.91-.41.19.02.37.04.56.07.2.05.44.11.74.19l4.31,1.17.26-2.63,2.23.6-.16,1.65c-.04.42.01.75.16.98.15.24.45.42.89.53l2.39.64-.27,2.71-3.56-.96-.4,4.02-2.23-.6.4-4.02-5.64-1.52-.18.38,2.14,3.35-1.77,1.27-.92-1.3c-.32-.46-.6-.88-.84-1.25-.23-.37-.42-.73-.58-1.06-.14-.32-.24-.64-.29-.95-.06-.31-.08-.65-.04-1.01Zm1.34,13.87v-.1c-.79-.47-1.4-.98-1.83-1.55-.43-.55-.6-1.24-.52-2.06.05-.5.17-.93.37-1.27.19-.33.43-.59.72-.79.3-.2.64-.33,1-.4.37-.07.75-.09,1.15-.05.29.03.59.07.89.13.3.07.69.17,1.16.3l5.38,1.46-.29,2.91-5.71-1.55c-.18-.05-.37-.1-.57-.16-.2-.05-.42-.08-.67-.11-.13-.01-.27,0-.42.02-.15.03-.29.08-.42.16-.13.08-.24.19-.33.33-.08.15-.13.34-.16.57-.03.35.02.65.15.92.13.27.34.53.63.79.18.17.44.36.76.6.34.25.71.43,1.13.53l5.27,1.43-.29,2.9-10.1-2.73.29-2.9,2.41.64Zm-3.7,10c.09-.88.38-1.5.89-1.86.5-.35,1.14-.49,1.91-.41.19.02.37.04.56.07.2.05.44.11.74.19l4.31,1.17.26-2.63,2.23.6-.16,1.65c-.04.42.01.75.16.98.15.24.45.42.89.53l2.39.64-.27,2.71-3.56-.96-.4,4.02-2.23-.6.4-4.02-5.64-1.52-.18.38,2.14,3.35-1.77,1.27-.92-1.3c-.32-.46-.6-.88-.84-1.25-.23-.37-.42-.72-.58-1.06-.14-.32-.24-.64-.29-.95-.06-.32-.08-.65-.04-1.01Zm10.56,14.32c.06-.6.21-1.01.46-1.24.26-.21.57-.31.91-.27.07,0,.15.02.26.05.12.02.29.07.53.13.42.11.73.32.92.63.2.31.27.77.21,1.37-.06.6-.22,1-.48,1.22-.25.23-.55.33-.89.29-.07,0-.16-.02-.28-.05-.11-.02-.27-.07-.51-.13-.42-.11-.72-.32-.92-.63-.2-.31-.26-.77-.21-1.37Zm-11.78-1.99c.08-.82.36-1.42.82-1.79.48-.37,1.08-.52,1.81-.44.23.02.44.06.65.1.21.05.52.13.92.25l4.18,1.22.31-3.1,2.23.6-.6,6.05-8.01-2.34-.13.33,2.57,3.07-1.57,1.45-1.27-1.35c-.69-.75-1.2-1.45-1.52-2.08-.33-.62-.46-1.28-.39-1.97Zm-1.12,11.28c.14-1.41.64-2.46,1.5-3.15.87-.69,1.99-.97,3.36-.83.98.1,1.85.32,2.61.68.75.37,1.38.83,1.87,1.39.49.57.85,1.22,1.07,1.96.22.74.29,1.55.2,2.41-.14,1.41-.64,2.46-1.52,3.15-.86.69-1.97.97-3.34.83-.98-.1-1.85-.33-2.6-.7-.76-.36-1.38-.82-1.87-1.39-.49-.56-.85-1.21-1.07-1.96-.22-.73-.29-1.53-.2-2.39Zm2.15.43c-.06.64.08,1.17.42,1.61.34.45.87.77,1.57.96l1.53.41c.12.04.25.07.39.1.16.04.29.07.41.08.61.06,1.08-.05,1.4-.34.34-.27.53-.68.58-1.23.06-.64-.08-1.18-.42-1.63-.35-.44-.87-.75-1.57-.94l-1.53-.41c-.12-.04-.25-.08-.41-.12-.14-.03-.28-.05-.4-.06-.61-.06-1.08.05-1.42.32-.32.29-.51.71-.57,1.25Zm-2.62,6.75l10.1,2.73-.29,2.91-2.41-.64v.1c.79.47,1.4.98,1.83,1.53.43.57.6,1.26.52,2.08-.05.5-.17.92-.37,1.25-.19.34-.44.61-.74.81-.29.2-.62.34-.98.4-.37.07-.75.09-1.15.05-.29-.03-.59-.08-.89-.15-.3-.06-.69-.15-1.16-.27l-5.38-1.46.29-2.9,5.73,1.55c.18.05.37.09.55.14.2.06.42.1.67.13.13.01.27,0,.42-.02.15-.03.29-.08.42-.16.13-.08.23-.2.32-.35.09-.14.15-.32.17-.55.03-.34-.02-.65-.15-.92s-.34-.53-.63-.79c-.18-.17-.45-.37-.78-.62-.33-.23-.7-.4-1.12-.51l-5.26-1.43.29-2.91Z"/>
  <circle class="cls-6" cx="180.25" cy="284.73" r="108.14"/>
  <g>
    <path class="cls-16" d="m419.33,320.29c0,70.5-55.78,127.65-124.59,127.65s-124.59-57.15-124.59-127.65,55.78-127.65,124.59-127.65,124.59,57.15,124.59,127.65Z"/>
    <path class="cls-1" d="m419.33,320.29c0,70.5-55.78,127.65-124.59,127.65s-124.59-57.15-124.59-127.65,55.78-127.65,124.59-127.65,124.59,57.15,124.59,127.65Z"/>
  </g>
  <path class="cls-16" d="m92.62,326.06l-2.21-.27-.13-3.02-9.62-1.19.13,3.02-2.21-.27-.38-8.99,2.21.27.13,3.02,9.62,1.19-.13-3.02,2.21.27.38,8.99Zm-3.25-18.57v.1c.41.18.79.38,1.13.59.33.2.62.43.87.7.25.26.45.55.6.89.15.33.23.71.25,1.15.02.55-.05,1.02-.22,1.41-.17.38-.42.7-.76.95-.35.26-.77.45-1.26.59-.49.13-1.03.2-1.63.23-1.03.04-1.96-.03-2.79-.22-.85-.19-1.58-.48-2.18-.87-.62-.39-1.1-.86-1.44-1.42-.36-.57-.55-1.22-.58-1.94-.03-.81.13-1.43.5-1.86.35-.44.87-.75,1.54-.93v-.14s-6.45-.79-6.45-.79l-.12-2.92,14.89,1.83.12,2.92-2.47-.3Zm.54,2.24c-.02-.36-.12-.68-.3-.95-.19-.27-.44-.52-.75-.75-.19-.15-.46-.32-.8-.51-.35-.18-.75-.3-1.18-.35l-1.67-.21c-.55-.07-.97.03-1.25.31-.28.26-.41.72-.38,1.36.03.72.27,1.26.71,1.63.43.37,1.04.6,1.83.7l1.21.15c.12.02.26.04.42.04.15,0,.31,0,.48,0,.49-.03.9-.15,1.23-.35.32-.21.48-.57.45-1.08Zm1.73-12.62c.06,1.53-.27,2.68-1.02,3.45-.76.77-1.82,1.18-3.19,1.24-.96.04-1.84-.07-2.64-.33-.8-.26-1.49-.64-2.07-1.13-.58-.51-1.04-1.13-1.38-1.86-.34-.73-.53-1.56-.57-2.48-.02-.52.02-1.01.12-1.47.1-.47.26-.89.49-1.24.21-.36.49-.64.84-.86.34-.21.75-.33,1.23-.35.41-.02.83.05,1.25.21.42.15.81.48,1.18.97.35.48.67,1.17.95,2.08.26.9.45,2.08.57,3.54.08.01.15.01.2.01.04,0,.09,0,.14,0,.56-.02.98-.2,1.26-.51.28-.32.41-.83.38-1.54-.01-.28-.05-.53-.11-.76-.06-.24-.17-.46-.31-.67-.16-.22-.35-.43-.57-.64-.24-.22-.53-.45-.89-.7l1.1-1.87c.4.25.78.53,1.14.83.35.29.66.63.94,1.02.27.39.49.83.66,1.33.17.5.27,1.08.29,1.73Zm-8.79-.91c.03.64.24,1.18.65,1.61.39.44,1.04.73,1.94.88l.28.05c-.09-.92-.21-1.63-.35-2.15-.14-.53-.3-.91-.47-1.16-.17-.26-.35-.42-.54-.48-.19-.06-.36-.08-.52-.08-.69.03-1.02.47-.99,1.32Zm8.26-5.95l-10.38-1.28-.12-2.92,2.47.3v-.1c-.86-.35-1.54-.77-2.04-1.26-.5-.5-.77-1.16-.8-1.99-.02-.51.04-.93.19-1.29.14-.37.35-.67.62-.91.26-.24.56-.42.92-.54.36-.12.73-.19,1.13-.21.29-.01.59,0,.9.02.31.01.7.05,1.19.11l5.53.69.12,2.92-5.9-.73c-.19-.02-.38-.04-.56-.06-.2-.03-.43-.04-.68-.03-.13,0-.27.03-.42.08-.14.05-.28.12-.39.22-.12.1-.2.23-.26.39-.07.15-.11.34-.1.57.01.35.11.64.28.89.17.25.41.48.73.69.21.14.49.31.86.5.35.18.75.3,1.18.35l5.41.67.12,2.92Zm-.48-17.05c.04.88-.17,1.54-.62,1.97-.45.42-1.06.65-1.83.68-.19,0-.37,0-.56,0-.2-.02-.46-.05-.76-.09l-4.43-.55.11,2.64-2.29-.28-.07-1.66c-.02-.43-.12-.74-.3-.95-.18-.22-.5-.35-.96-.4l-2.45-.3-.12-2.72,3.66.45-.17-4.04,2.29.28.17,4.04,5.8.72.12-.41-2.59-3.01,1.58-1.51,1.09,1.15c.38.41.71.78,1.01,1.12.28.33.52.66.72.97.19.3.33.6.42.9.11.3.17.63.18.99Zm-12.47-12.7c.03.6-.07,1.03-.29,1.29-.23.25-.52.38-.86.4-.07,0-.15,0-.26,0-.12,0-.3-.03-.54-.06-.43-.05-.76-.21-1-.5-.24-.28-.37-.72-.4-1.32-.03-.6.08-1.02.31-1.27.22-.26.5-.4.84-.42.07,0,.16,0,.28,0,.11,0,.28.03.52.06.43.05.76.21,1,.5.24.28.37.72.4,1.32Zm11.94.32c.03.83-.15,1.45-.56,1.88-.42.43-1,.66-1.73.69-.23,0-.45,0-.66-.01-.21-.02-.53-.06-.95-.12l-4.31-.62.13,3.12-2.29-.28-.26-6.07,8.26,1.19.09-.34-2.98-2.68,1.35-1.66,1.45,1.16c.79.65,1.39,1.26,1.8,1.85.41.57.63,1.2.66,1.89Zm-.49-11.58c.04.88-.17,1.53-.62,1.97-.45.42-1.06.64-1.83.68-.19,0-.37,0-.56,0-.2-.02-.46-.05-.76-.09l-4.43-.55.11,2.64-2.29-.28-.07-1.66c-.02-.43-.12-.74-.3-.95-.18-.22-.5-.35-.96-.4l-2.45-.3-.12-2.72,3.66.44-.17-4.04,2.29.28.17,4.04,5.8.72.12-.41-2.59-3.01,1.58-1.51,1.09,1.15c.38.41.71.78,1.01,1.12.28.34.52.66.72.97.19.3.33.6.42.9.11.3.17.63.18.99Zm3.54-10.93c.04.96-.02,1.78-.2,2.45-.17.67-.55,1.28-1.14,1.83l-1.87-1.66c.37-.34.63-.71.77-1.11.14-.42.2-.86.18-1.33-.02-.37-.08-.7-.18-.99-.09-.29-.26-.54-.49-.76-.24-.22-.56-.4-.96-.54-.39-.14-.9-.25-1.54-.33l-1.73-.21v.1c.86.35,1.54.78,2.04,1.28.5.49.77,1.14.8,1.97.02.51-.04.94-.18,1.31-.15.35-.35.65-.6.89-.27.24-.58.42-.94.54-.36.12-.73.19-1.13.21-.29.01-.59.01-.9,0-.31-.03-.7-.07-1.19-.13l-5.19-.64-.12-2.92,5.53.69c.19.02.38.04.58.08.2.02.43.02.68.01.13,0,.27-.03.42-.08.14-.05.28-.12.39-.22.12-.1.21-.22.28-.37.06-.16.08-.36.08-.58-.01-.35-.11-.64-.28-.89-.17-.25-.41-.48-.73-.69-.21-.14-.49-.3-.84-.48-.37-.2-.77-.32-1.2-.37l-5.07-.63-.12-2.92,9.66,1.19c1.69.21,2.96.77,3.81,1.68.85.9,1.31,2.11,1.38,3.65Z"/>
  <path class="cls-16" d="m170.62,506.71l1.72-3.64-.17-.04-5.42,6.06.35-7.31-.18-.04-1.42,3.71-2.49,5.79-2.49-.61,5.6-13,3.28.81-.2,4.83.17.04,3.58-4,3.26.8-5.6,13-2.49-.61,2.49-5.79Zm6.98,8.37c-1.49-.37-2.5-1.01-3.02-1.94-.53-.94-.62-2.07-.3-3.41.23-.93.58-1.74,1.05-2.44.47-.69,1.03-1.25,1.67-1.67.65-.42,1.38-.69,2.18-.81.8-.12,1.64-.07,2.54.15.51.12.96.3,1.38.52.43.23.78.5,1.06.82.28.3.48.65.59,1.05.11.38.11.81,0,1.28-.1.4-.28.78-.55,1.14-.27.36-.69.65-1.26.86-.56.21-1.31.32-2.26.33-.93,0-2.12-.14-3.56-.44-.03.08-.05.14-.07.19,0,.04-.02.08-.03.14-.13.54-.09.99.14,1.35s.68.62,1.37.79c.27.07.52.1.76.1.25,0,.49-.03.73-.11.26-.09.51-.21.77-.37.28-.17.58-.39.92-.66l1.49,1.58c-.35.31-.72.6-1.12.86-.38.25-.79.46-1.24.62-.45.15-.94.24-1.46.26-.53.02-1.11-.04-1.74-.2Zm3.33-8.18c-.62-.15-1.2-.1-1.73.17-.53.26-.99.79-1.38,1.62l-.12.26c.91.17,1.63.25,2.16.26.55,0,.96-.03,1.25-.13.3-.09.5-.22.61-.39.11-.17.18-.33.22-.48.16-.67-.17-1.11-1-1.32Zm2.69,9.41l4.13-9.61,2.29.56-.72,1.68.12.03c.36-.53.77-.93,1.22-1.2.45-.29.95-.37,1.48-.23.52.13.87.39,1.06.8.21.39.19.91-.03,1.56l.1.02c.19-.26.39-.48.6-.68.21-.21.44-.37.68-.49.24-.13.49-.22.75-.27.27-.04.56-.03.87.05,1.14.28,1.56,1.04,1.25,2.29-.05.22-.13.46-.22.73-.09.25-.18.49-.28.71l-2.84,6.63-2.29-.56,2.73-6.35c.05-.11.1-.24.15-.37.05-.14.09-.27.12-.4.06-.23.05-.43-.02-.58-.06-.16-.17-.27-.35-.31-.17-.04-.34-.04-.52.02-.16.04-.34.17-.55.38-.16.17-.31.36-.45.57-.12.2-.25.47-.4.81l-2.5,5.81-2.29-.56,2.73-6.35c.05-.11.11-.23.15-.37.05-.14.09-.28.12-.42.12-.49,0-.78-.38-.88-.14-.04-.3-.03-.48,0-.16.04-.35.17-.57.4-.2.18-.36.38-.49.58-.12.2-.21.39-.28.57l-2.59,6.04-2.29-.56Zm16.97,4.41c-1.37-.34-2.34-.98-2.9-1.93-.56-.96-.68-2.11-.35-3.44.24-.96.58-1.79,1.04-2.48.47-.69,1.02-1.25,1.64-1.66.64-.41,1.33-.67,2.09-.79.77-.11,1.57-.07,2.42.14,1.37.34,2.34.99,2.9,1.95.56.95.68,2.09.35,3.42-.24.96-.59,1.78-1.06,2.48-.46.7-1.01,1.25-1.64,1.66-.62.41-1.32.67-2.09.79-.76.12-1.55.07-2.4-.14Zm.73-2.06c.62.15,1.17.09,1.65-.19.49-.28.88-.75,1.17-1.42l.62-1.45c.05-.11.11-.23.15-.37.06-.15.11-.28.14-.4.15-.6.1-1.07-.14-1.44-.23-.37-.6-.62-1.13-.75-.62-.15-1.18-.09-1.67.19-.48.28-.87.75-1.15,1.43l-.62,1.45c-.06.11-.11.24-.18.39-.05.14-.09.27-.12.38-.15.6-.11,1.08.12,1.45.24.36.63.61,1.16.74Zm8.66,4.12l3.22-7.49-2.29-.56.91-2.12,5.13,1.26-1.27,2.9.12.03c.65-.86,1.36-1.47,2.12-1.85s1.64-.44,2.62-.2l.66.16-1.2,2.71-1.77-.43c-.53-.13-.98-.16-1.33-.1-.35.07-.67.22-.98.46-.17.12-.38.33-.62.61-.25.28-.45.59-.6.92l-1.88,4.4-2.84-.7Zm12.01,7.32c-.93-.23-1.7-.52-2.3-.87-.6-.35-1.08-.89-1.44-1.61l2.12-1.33c.22.45.5.8.85,1.05.36.25.77.44,1.22.55.36.09.7.12,1,.1.3,0,.59-.1.87-.26.27-.17.54-.42.79-.77.25-.34.5-.8.75-1.38l.68-1.6-.1-.02c-.58.72-1.17,1.26-1.79,1.6-.61.34-1.31.42-2.11.22-.49-.12-.89-.3-1.21-.54-.3-.24-.53-.51-.68-.83-.15-.33-.24-.68-.26-1.05-.02-.38.02-.76.12-1.14.07-.29.15-.57.25-.86.11-.29.26-.66.46-1.1l2.07-4.81,2.84.7-2.21,5.12c-.07.17-.15.36-.24.54-.07.19-.14.4-.2.65-.03.13-.05.27-.04.42,0,.15.04.3.1.44.06.14.15.26.28.38.14.1.32.18.54.24.34.08.65.08.93-.02.28-.1.57-.27.87-.51.19-.16.42-.38.7-.67.29-.3.52-.65.69-1.05l2.02-4.69,2.84.7-3.84,8.94c-.67,1.57-1.57,2.63-2.68,3.19-1.1.57-2.4.67-3.88.3Zm23,1.53c-.82-.2-1.41-.66-1.78-1.39-.37-.72-.41-1.67-.12-2.85.14-.58.34-1.12.6-1.6.27-.5.61-.9,1-1.22.4-.33.86-.56,1.38-.69.53-.13,1.12-.14,1.79-.01-.04-.45-.05-.9-.04-1.37.02-.46.08-.9.18-1.32.12-.48.31-.91.59-1.3.29-.38.64-.69,1.05-.92.41-.23.89-.37,1.42-.43.54-.06,1.12-.01,1.76.14.52.13.96.33,1.34.6.39.26.7.58.92.95.23.37.37.79.43,1.26.07.46.04.94-.09,1.44-.26,1.08-.82,1.89-1.65,2.46-.84.55-1.89.79-3.16.71l.44,4.25.31.16,1.77-1.52,1.31,1.54-1.32,1.34c-.53.54-1.01.89-1.45,1.04-.43.14-.91.15-1.43.02-.26-.06-.49-.18-.7-.34-.21-.16-.4-.38-.56-.65-.15-.28-.27-.63-.36-1.04-.08-.42-.11-.91-.11-1.47l-.12-.03c-.31.8-.75,1.43-1.33,1.88-.57.43-1.27.55-2.08.35Zm1.65-2.21c.12.03.24.05.35.07.14,0,.27,0,.4-.04.14-.05.27-.13.41-.23.15-.11.3-.28.45-.51l-.3-3.55c-.28.01-.51.07-.7.16-.19.09-.35.21-.48.36-.13.13-.24.29-.32.48-.09.18-.16.37-.22.56-.1.3-.18.54-.24.7-.04.17-.08.31-.11.43-.1.41-.08.76.05,1.04.14.28.37.46.69.54Zm5.47-8.77c-.44-.11-.79-.04-1.06.21-.25.24-.43.56-.52.96-.1.42-.16.84-.17,1.28,0,.43.04.92.09,1.46v.19c.59-.06,1.04-.21,1.36-.43.33-.23.59-.58.79-1.02.1-.22.17-.42.23-.58.06-.18.11-.36.15-.54.08-.35.05-.67-.12-.95-.15-.3-.39-.49-.74-.58Zm18.6,17.29c-.85-.21-1.43-.59-1.72-1.14-.28-.55-.32-1.2-.14-1.95.04-.18.1-.36.15-.54.07-.19.17-.42.3-.71l1.77-4.1-2.56-.63.91-2.12,1.61.39c.41.1.75.09.99-.02.26-.11.48-.38.65-.81l.97-2.27,2.64.65-1.45,3.39,3.92.96-.91,2.12-3.92-.96-2.31,5.36.36.23,3.62-1.65,1.01,1.94-1.41.72c-.5.25-.95.47-1.36.66-.4.18-.78.32-1.13.42-.34.1-.67.15-.98.15-.32.02-.65-.02-1-.1Zm12.71-12.37l2.84.7-2.76,6.47.1.02c.57-.72,1.17-1.26,1.77-1.6.62-.34,1.33-.42,2.13-.22.49.12.89.3,1.19.54.31.24.54.52.7.85.16.31.24.66.26,1.03.02.38-.02.76-.12,1.15-.07.28-.16.57-.27.86-.1.29-.24.66-.44,1.11l-2.2,5.12-2.84-.7,2.35-5.46c.07-.17.14-.35.21-.52.09-.18.16-.4.22-.65.03-.13.05-.27.04-.42,0-.15-.04-.3-.1-.44-.06-.14-.16-.26-.3-.36-.12-.11-.3-.2-.51-.25-.34-.08-.65-.08-.93.02s-.57.26-.87.51c-.19.16-.43.39-.73.69-.28.29-.5.63-.66,1.03l-2.16,5.01-2.84-.7,5.92-13.79Zm10.64,18.1c-1.49-.37-2.5-1.01-3.03-1.94-.52-.94-.62-2.08-.3-3.41.23-.93.58-1.75,1.05-2.44.47-.69,1.03-1.25,1.67-1.67.65-.42,1.38-.68,2.17-.8.8-.12,1.64-.07,2.54.15.51.12.96.3,1.38.52.42.23.78.5,1.06.82.28.3.48.65.59,1.05.11.38.11.81,0,1.28-.1.4-.28.78-.55,1.14s-.69.65-1.26.86c-.56.21-1.31.32-2.26.33-.93,0-2.12-.14-3.56-.44-.03.08-.05.14-.07.19,0,.04-.02.08-.03.14-.13.54-.09.99.14,1.35.23.36.68.62,1.37.79.27.07.52.1.76.1.25,0,.49-.03.73-.11.26-.09.51-.21.77-.37.27-.17.58-.39.92-.66l1.49,1.58c-.35.31-.72.6-1.12.86-.38.25-.79.46-1.24.62-.45.15-.94.24-1.46.26-.53.02-1.11-.05-1.74-.2Zm3.33-8.18c-.62-.15-1.2-.09-1.73.17-.53.26-.99.79-1.39,1.62l-.12.26c.91.17,1.63.26,2.16.26.55.01.96-.03,1.25-.13.3-.09.5-.22.61-.39.11-.16.18-.33.22-.48.17-.67-.17-1.11-.99-1.32Zm-124.95,4.85l.87-2.05,2.93.72,3.83-8.9-2.93-.72.87-2.05,8.74,2.15-.87,2.05-2.93-.72-3.83,8.9,2.93.72-.87,2.05-8.74-2.15Zm10.79,2.65l4.13-9.61,2.29.56-.72,1.68.12.03c.36-.53.77-.93,1.22-1.2.45-.29.95-.36,1.48-.23.52.13.87.39,1.06.8.21.39.19.91-.03,1.56l.1.02c.19-.26.39-.48.6-.68.21-.21.44-.37.68-.49.24-.13.49-.22.74-.27.27-.04.56-.03.87.05,1.14.28,1.56,1.04,1.25,2.28-.05.22-.13.46-.22.73-.09.25-.18.49-.28.71l-2.84,6.63-2.29-.56,2.73-6.35c.05-.11.1-.23.15-.38.05-.14.09-.27.12-.4.06-.23.05-.43-.02-.58-.06-.16-.17-.27-.35-.31-.17-.04-.34-.04-.52.02-.16.04-.34.17-.55.38-.16.17-.31.36-.45.57-.12.21-.25.47-.4.81l-2.5,5.81-2.29-.56,2.73-6.35c.05-.11.11-.24.15-.37.05-.14.09-.28.12-.42.12-.49,0-.78-.38-.88-.14-.03-.3-.03-.48,0-.16.04-.35.17-.57.4-.2.19-.36.38-.49.58-.12.2-.21.39-.28.57l-2.59,6.04-2.29-.56Zm18.62,4.57l.97-2.29-.1-.02c-.29.34-.58.65-.88.91-.28.26-.59.47-.92.64-.32.17-.66.28-1.03.32-.36.05-.75.02-1.17-.08-.53-.13-.96-.33-1.29-.61-.32-.27-.55-.6-.7-1-.15-.41-.22-.86-.22-1.37.01-.5.09-1.05.24-1.63.24-1,.58-1.87.99-2.62.42-.76.9-1.38,1.44-1.85.54-.48,1.13-.81,1.77-.99.65-.18,1.32-.19,2.02-.02.79.19,1.34.53,1.65,1,.33.47.48,1.04.46,1.74l.14.03.77-1.79,2.84.7-4.13,9.61-2.84-.7Zm-1.32-2.4c.35.09.68.08.99-.02.31-.1.62-.27.93-.51.2-.14.44-.35.71-.63.28-.29.5-.63.67-1.03l.67-1.54c.22-.51.24-.94.05-1.29-.18-.34-.58-.59-1.2-.75-.7-.17-1.29-.1-1.76.23-.47.31-.87.83-1.19,1.56l-.48,1.12c-.05.11-.11.24-.16.39-.05.14-.09.29-.13.46-.1.48-.11.91,0,1.28.11.37.42.62.91.74Zm9.57,8.79c-.93-.23-1.7-.52-2.3-.87-.6-.35-1.08-.89-1.44-1.61l2.12-1.33c.22.45.5.8.85,1.05.36.25.77.44,1.22.55.36.09.7.13,1,.12.3,0,.59-.09.87-.26.29-.16.56-.42.81-.77.25-.35.5-.82.75-1.4l.72-1.66-.12-.03c-.28.34-.56.65-.86.92-.28.26-.58.48-.9.64-.32.17-.66.28-1.03.33-.37.05-.77.02-1.19-.09-.54-.13-.98-.34-1.31-.63-.33-.29-.57-.64-.73-1.04-.16-.41-.24-.86-.24-1.36.01-.51.09-1.04.23-1.59.22-.91.53-1.72.93-2.43.39-.71.85-1.29,1.38-1.74.54-.46,1.12-.77,1.75-.93.65-.17,1.32-.17,2.02,0,.82.2,1.38.54,1.69,1.01.31.46.46,1.04.44,1.73l.16.04.77-1.79,2.84.7-3.84,8.94c-.67,1.57-1.57,2.63-2.68,3.19-1.1.57-2.4.67-3.88.3Zm2.29-6.32c.35.09.67.08.97,0,.3-.11.6-.27.9-.48.2-.14.43-.35.71-.61.28-.26.52-.61.71-1.06l.53-1.25c.19-.45.2-.85.03-1.21-.16-.35-.56-.61-1.19-.77-.73-.18-1.33-.09-1.81.26-.48.35-.87.86-1.16,1.53l-.34.78c-.05.11-.11.24-.16.39-.05.15-.1.33-.15.54-.11.43-.1.82.02,1.18.13.35.45.58.94.71Zm15.38-5.74c-.58-.14-.97-.36-1.16-.64-.18-.29-.22-.6-.14-.94.02-.07.04-.15.08-.25.04-.11.11-.28.21-.51.17-.4.42-.67.76-.82.34-.15.8-.15,1.38-.01.58.14.96.36,1.14.65.19.28.25.59.17.93-.02.06-.04.15-.09.27-.04.1-.1.26-.2.49-.17.4-.42.67-.76.82-.34.15-.8.15-1.38.01Zm-3.64,11.38c-.8-.2-1.35-.55-1.65-1.07-.3-.53-.36-1.14-.18-1.86.05-.22.12-.43.2-.63s.2-.49.38-.88l1.8-3.97-3.03-.74.91-2.12,5.9,1.45-3.45,7.6.31.18,3.4-2.11,1.22,1.76-1.52,1.07c-.84.58-1.6.98-2.27,1.21-.66.24-1.33.27-2,.11Zm6.4,1.32l4.13-9.61,2.84.7-.97,2.29.1.02c.58-.72,1.17-1.26,1.77-1.6.62-.34,1.33-.41,2.13-.22.49.12.89.3,1.19.54.31.24.54.52.7.85.16.31.24.66.26,1.03.02.38-.02.76-.12,1.15-.07.28-.16.57-.27.86-.1.29-.24.66-.44,1.11l-2.2,5.12-2.84-.7,2.35-5.46c.07-.17.14-.35.21-.53.09-.18.16-.4.22-.65.03-.13.05-.27.04-.42,0-.15-.04-.3-.1-.44-.06-.14-.16-.26-.3-.36-.12-.11-.29-.2-.51-.25-.34-.08-.65-.08-.93.02-.28.09-.57.26-.87.51-.19.16-.43.39-.72.69-.28.29-.5.63-.67,1.03l-2.16,5.01-2.84-.7Zm17.9,4.39l.97-2.29-.1-.02c-.29.34-.58.65-.88.92-.28.26-.59.47-.92.64-.32.17-.66.28-1.03.33-.36.05-.75.02-1.17-.08-.53-.13-.96-.33-1.29-.61-.32-.27-.55-.6-.7-1-.15-.41-.22-.86-.22-1.37.01-.51.09-1.05.24-1.63.24-1,.57-1.87.99-2.62.42-.76.9-1.38,1.44-1.85.54-.48,1.13-.81,1.77-.99.65-.18,1.32-.19,2.02-.02.79.19,1.34.53,1.65,1,.32.46.48,1.04.46,1.74l.14.03.77-1.79,2.84.7-4.13,9.61-2.84-.7Zm-1.32-2.41c.35.09.68.08.99-.02.31-.1.62-.27.93-.51.2-.14.44-.35.71-.63.28-.29.5-.63.66-1.03l.67-1.55c.22-.51.24-.94.05-1.29-.18-.35-.57-.59-1.2-.75-.7-.17-1.29-.1-1.76.23-.47.31-.87.83-1.19,1.56l-.48,1.12c-.05.11-.11.24-.16.39-.05.14-.09.29-.13.46-.1.48-.11.91,0,1.28.12.37.42.62.91.74Zm9.07,4.3l3.22-7.49-2.29-.56.91-2.12,5.13,1.26-1.27,2.9.12.03c.65-.86,1.36-1.47,2.12-1.85.76-.38,1.64-.44,2.62-.2l.66.16-1.2,2.71-1.77-.43c-.53-.13-.98-.16-1.34-.1-.35.07-.67.22-.98.46-.17.12-.38.33-.62.61-.25.28-.45.59-.6.92l-1.88,4.4-2.84-.7Zm12.01,7.32c-.93-.23-1.7-.52-2.3-.87-.6-.35-1.08-.89-1.44-1.61l2.12-1.33c.22.45.5.8.85,1.05.36.25.77.44,1.23.55.36.09.7.12,1,.1.3,0,.59-.1.87-.26.27-.17.54-.42.79-.77.25-.34.5-.8.75-1.38l.68-1.6-.1-.02c-.58.72-1.17,1.26-1.79,1.6-.61.34-1.31.42-2.11.22-.49-.12-.89-.3-1.21-.54-.3-.24-.53-.51-.68-.83-.15-.33-.24-.68-.26-1.05-.02-.38.02-.76.12-1.14.07-.29.15-.57.25-.86.11-.29.26-.66.46-1.1l2.07-4.81,2.84.7-2.2,5.12c-.07.17-.15.35-.24.54-.07.19-.14.4-.2.65-.03.13-.04.27-.04.42,0,.15.04.3.1.44.06.14.15.27.28.38.14.1.32.18.54.24.34.08.65.08.93-.02.28-.1.57-.26.87-.51.19-.16.42-.38.7-.67.29-.3.52-.65.69-1.05l2.02-4.7,2.84.7-3.84,8.94c-.67,1.57-1.57,2.63-2.68,3.19-1.1.57-2.39.67-3.88.3Z"/>
  <path class="cls-16" d="m437.94,498.4l-2.29-2.51-3.14,2.34.91,3.53-2.49,1.85-3.42-14.86,3.3-2.46,9.56,10.29-2.44,1.82Zm-7.31-8.34l-.14.11,1.39,5.55,2.24-1.67-3.49-3.98Zm12.86,4.21l-3.73-7.25-1.89,1.41-1.06-2.05,4.23-3.15,1.43,2.82.1-.07c-.25-1.05-.27-1.98-.07-2.81.2-.83.7-1.55,1.51-2.15l.55-.41,1.33,2.65-1.46,1.09c-.44.33-.75.65-.93.96-.17.31-.26.66-.27,1.05-.01.21.01.5.07.87.06.37.17.72.33,1.05l2.2,4.25-2.34,1.75Zm11.88-8.55c-.71.53-1.36.73-1.97.6-.6-.14-1.13-.51-1.59-1.13-.11-.15-.22-.3-.32-.46-.1-.18-.22-.4-.36-.68l-2.04-3.97-2.12,1.58-1.06-2.06,1.33-.99c.34-.26.55-.52.61-.78.08-.27,0-.61-.21-1.02l-1.14-2.2,2.18-1.62,1.69,3.28,3.24-2.41,1.06,2.05-3.24,2.41,2.67,5.19.4-.13,1.03-3.84,2.13.46-.34,1.55c-.13.54-.25,1.03-.36,1.46-.12.42-.25.8-.39,1.14-.14.32-.31.61-.51.86-.19.26-.43.49-.72.71Zm3.47-17.45c-.48.36-.89.52-1.23.49-.34-.05-.61-.21-.81-.49-.04-.05-.09-.13-.14-.22-.06-.1-.15-.26-.26-.48-.2-.38-.25-.75-.15-1.11.1-.36.39-.71.87-1.07.48-.36.89-.51,1.23-.46.34.03.61.18.82.46.04.05.09.13.15.24.05.09.14.25.25.47.2.38.25.75.15,1.11-.1.36-.39.72-.87,1.07Zm6.47,10.05c-.66.49-1.29.69-1.87.6-.6-.11-1.11-.45-1.55-1.04-.14-.18-.26-.37-.36-.55-.11-.19-.25-.47-.43-.85l-1.92-3.91-2.5,1.86-1.06-2.05,4.88-3.63,3.66,7.49.33-.12.54-3.97,2.13.18-.14,1.85c-.09,1.02-.26,1.86-.51,2.53-.24.66-.64,1.2-1.19,1.61Zm8.97-6.69c-.83.62-1.64,1.05-2.42,1.28-.77.21-1.46.2-2.07-.03l.35-2.28c.48.16.99.17,1.52.04.54-.15,1.05-.41,1.54-.77.48-.36.8-.72.97-1.07.17-.38.14-.71-.08-1.01-.17-.22-.37-.33-.6-.3-.24.01-.5.08-.79.21l-1.38.63c-.36.17-.71.3-1.07.4-.35.09-.69.13-1.02.11-.34-.03-.66-.13-.97-.3-.3-.18-.58-.45-.85-.81-.34-.46-.55-.93-.64-1.42-.08-.51-.04-1,.12-1.48.16-.5.42-.98.8-1.44.36-.47.81-.91,1.35-1.3.74-.55,1.48-.94,2.23-1.16.74-.24,1.38-.27,1.93-.12l-.3,2.27c-.36-.1-.78-.1-1.26.02-.48.11-.96.34-1.43.69-.42.31-.7.64-.84.98-.13.33-.09.65.13.95.17.22.36.33.57.33.21-.03.47-.11.76-.25l1.44-.65c.81-.37,1.53-.53,2.17-.5.64.04,1.21.39,1.72,1.07.34.46.55.94.63,1.45.07.5.03,1-.14,1.52-.17.51-.45,1.02-.85,1.53-.4.49-.9.97-1.52,1.43Zm9.94-7.4c-.71.53-1.36.73-1.97.6-.6-.14-1.13-.51-1.59-1.13-.11-.15-.22-.3-.32-.46-.1-.18-.22-.4-.36-.68l-2.04-3.97-2.12,1.58-1.06-2.05,1.33-.99c.34-.26.55-.52.61-.78.08-.27,0-.61-.21-1.02l-1.14-2.19,2.18-1.62,1.69,3.28,3.24-2.41,1.06,2.06-3.24,2.41,2.67,5.19.4-.13,1.03-3.84,2.13.45-.34,1.55c-.13.54-.25,1.03-.36,1.46-.12.42-.25.8-.4,1.14-.14.32-.31.61-.51.85-.19.26-.43.49-.72.71Zm3.47-17.45c-.48.36-.89.52-1.23.49-.34-.05-.61-.21-.82-.49-.04-.05-.09-.13-.14-.22-.06-.1-.15-.26-.26-.48-.2-.38-.25-.75-.15-1.11s.39-.71.87-1.07c.48-.36.89-.51,1.23-.46.34.03.61.18.82.46.04.05.09.13.15.24.05.09.14.25.25.46.2.38.25.75.15,1.11-.1.36-.39.71-.87,1.07Zm6.46,10.05c-.66.49-1.29.69-1.87.6-.59-.11-1.11-.45-1.55-1.04-.14-.18-.26-.37-.36-.55-.11-.19-.25-.47-.43-.85l-1.92-3.91-2.5,1.86-1.06-2.05,4.88-3.63,3.67,7.49.33-.12.54-3.97,2.13.18-.14,1.85c-.09,1.02-.26,1.86-.51,2.53-.24.66-.64,1.2-1.19,1.61Zm9.21-6.87c-1.13.84-2.22,1.18-3.26,1.01-1.04-.17-1.98-.81-2.81-1.92-.53-.71-.92-1.44-1.18-2.22-.27-.78-.38-1.55-.35-2.31.03-.76.24-1.48.6-2.17.37-.71.92-1.34,1.66-1.89.95-.71,1.82-1.06,2.61-1.05.79.01,1.51.26,2.16.76l-1.24,2.32c-.37-.25-.74-.41-1.09-.46-.36-.05-.77.1-1.24.45-.46.34-.74.78-.84,1.32-.09.53.04,1.12.37,1.77l.56,1.08c.05.11.12.24.21.39.09.15.19.28.28.41.32.43.68.7,1.1.8.42.09.89-.07,1.43-.46.17-.13.32-.26.45-.41.12-.15.21-.36.29-.61.09-.26.15-.59.2-.97.05-.4.07-.9.08-1.5l2.16-.14c.05.65.06,1.24.03,1.78-.03.54-.12,1.05-.28,1.53-.16.47-.4.91-.71,1.33-.31.41-.71.8-1.2,1.17Zm-67.82,82.66l-2.34,1.74-6.46-12.59,4.04-3.01c.49-.37.98-.61,1.47-.74.49-.15.96-.18,1.42-.11.45.07.87.23,1.27.5.41.26.78.61,1.12,1.06.74.99,1.11,2,1.12,3.01.02,1-.31,1.93-.96,2.79l4.81,3.27-2.5,1.86-4.34-3.25-1.03.77,2.4,4.7Zm-2.2-7.74c.58-.43.92-.84,1.04-1.22.11-.38.03-.84-.24-1.36l-.22-.43c-.11-.22-.23-.4-.35-.56-.28-.37-.59-.56-.93-.55-.35,0-.73.14-1.12.44l-1.33.99,1.88,3.66,1.28-.96Zm13.56-.43c-1.23.92-2.37,1.28-3.42,1.1-1.06-.19-2-.84-2.82-1.94-.57-.77-.98-1.56-1.21-2.36-.23-.81-.31-1.59-.23-2.35.09-.77.35-1.5.76-2.19.42-.69.99-1.31,1.73-1.86.42-.31.84-.55,1.28-.73.45-.18.88-.28,1.3-.3.41-.03.81.05,1.18.22.37.16.7.43.98.82.25.33.42.71.53,1.15s.06.94-.14,1.52c-.2.56-.59,1.21-1.19,1.96-.59.72-1.46,1.55-2.6,2.46.04.07.07.13.1.17.02.03.05.07.08.11.34.45.71.7,1.13.75.42.05.92-.13,1.48-.55.22-.17.41-.34.56-.52.16-.19.29-.4.38-.63.09-.25.16-.53.21-.83.05-.32.07-.69.08-1.13l2.17-.14c.02.47,0,.94-.05,1.41-.05.45-.15.9-.31,1.36-.17.44-.41.87-.73,1.29-.32.42-.74.83-1.26,1.22Zm-4.2-7.77c-.51.38-.84.86-.97,1.45-.14.57-.02,1.27.36,2.1l.12.26c.71-.59,1.23-1.09,1.58-1.5.36-.42.59-.76.69-1.04.12-.29.15-.53.09-.72-.06-.19-.13-.35-.23-.48-.41-.56-.96-.58-1.65-.07Zm14.47,5.11c-.29.21-.59.36-.89.44-.31.08-.63.11-.96.09-.33-.02-.68-.08-1.06-.18-.37-.09-.76-.21-1.19-.36l-1.36-.46.78-2.3,3.28.95.13-.22-4.59-8.9-2.61,1.95-1.06-2.05,2.61-1.95-.72-1.41c-.4-.78-.53-1.56-.39-2.33.13-.78.63-1.49,1.5-2.14l2.86-2.13,1.06,2.06-2.98,2.22,1.03,1.98,2.98-2.22,1.06,2.05-3,2.23,4.22,8.21c.52,1.01.7,1.88.55,2.61-.15.74-.56,1.36-1.23,1.86Zm8.78-11.53c-.66.49-1.28.69-1.86.59-.58-.11-1.1-.46-1.53-1.05-.14-.18-.26-.37-.36-.55-.11-.19-.25-.47-.43-.85l-3.93-7.99-2.44,1.82-1.06-2.06,4.8-3.57,5.7,11.57.3-.1.54-3.97,2.13.18-.14,1.85c-.09,1.02-.26,1.86-.51,2.53-.24.66-.64,1.2-1.19,1.61Zm9.79-7.3c-1.23.92-2.37,1.28-3.42,1.1-1.06-.19-2-.84-2.82-1.94-.57-.77-.98-1.56-1.21-2.36-.23-.81-.31-1.59-.23-2.35.09-.77.35-1.5.76-2.19.41-.69.99-1.31,1.73-1.86.42-.31.84-.55,1.28-.73.45-.18.88-.28,1.3-.3.41-.03.81.05,1.18.21.37.16.7.43.98.82.25.33.42.71.53,1.15s.06.94-.14,1.52c-.2.56-.59,1.21-1.19,1.96-.59.72-1.46,1.54-2.6,2.46.04.07.07.13.1.17.02.03.05.07.08.11.33.45.71.7,1.13.75.42.05.91-.13,1.48-.56.23-.17.41-.34.56-.52.16-.19.29-.4.38-.63.09-.25.16-.53.21-.83.05-.32.07-.69.08-1.13l2.16-.14c.02.47,0,.94-.05,1.41-.05.45-.15.9-.31,1.35-.17.44-.41.87-.73,1.29-.32.42-.74.83-1.26,1.22Zm-4.2-7.77c-.51.38-.84.86-.97,1.45-.14.57-.02,1.27.37,2.1l.12.26c.71-.59,1.23-1.09,1.58-1.5.36-.42.59-.76.7-1.04.12-.29.15-.53.09-.71-.06-.19-.14-.35-.23-.48-.42-.56-.96-.58-1.65-.07Zm13.68.7c-1.13.84-2.22,1.18-3.26,1.01-1.04-.17-1.98-.81-2.81-1.92-.53-.71-.92-1.44-1.18-2.22-.27-.78-.38-1.55-.35-2.31.04-.76.24-1.48.6-2.17.37-.71.92-1.34,1.66-1.89.95-.71,1.82-1.06,2.61-1.05.79.01,1.51.26,2.16.76l-1.24,2.32c-.37-.25-.74-.41-1.09-.46-.36-.05-.77.1-1.24.45-.46.34-.74.78-.84,1.32-.09.53.04,1.12.37,1.77l.56,1.08c.05.11.12.24.21.39.09.15.19.28.28.41.32.43.69.7,1.1.8.41.09.89-.07,1.42-.46.17-.13.32-.26.45-.41.12-.15.21-.36.29-.62.09-.26.15-.59.2-.97.05-.4.08-.9.08-1.5l2.16-.14c.05.65.06,1.24.03,1.78-.03.54-.12,1.05-.28,1.53-.16.47-.4.91-.71,1.33-.31.41-.71.8-1.2,1.17Zm9.7-7.23c-.71.53-1.36.73-1.97.6-.6-.14-1.13-.51-1.59-1.13-.11-.15-.22-.3-.32-.46-.1-.18-.22-.4-.36-.68l-2.04-3.97-2.12,1.58-1.06-2.05,1.33-.99c.34-.26.55-.52.61-.78.08-.27,0-.61-.21-1.02l-1.14-2.19,2.18-1.62,1.69,3.28,3.24-2.41,1.06,2.06-3.24,2.41,2.67,5.19.4-.13,1.03-3.84,2.13.45-.34,1.55c-.13.54-.24,1.03-.36,1.46-.12.42-.25.8-.4,1.14-.14.32-.31.61-.51.85-.19.26-.43.5-.72.71Zm3.47-17.45c-.48.36-.89.52-1.23.49-.34-.05-.61-.21-.82-.49-.04-.05-.09-.13-.14-.22-.06-.1-.15-.26-.26-.48-.2-.38-.25-.75-.15-1.11.1-.36.39-.71.87-1.07.48-.36.89-.51,1.23-.46.34.03.61.18.82.46.04.05.09.13.15.24.05.09.13.25.25.46.2.38.25.75.15,1.11-.1.36-.39.71-.87,1.07Zm6.46,10.05c-.66.49-1.29.69-1.87.6-.59-.11-1.11-.45-1.55-1.04-.13-.18-.26-.37-.36-.55-.11-.19-.25-.47-.43-.85l-1.92-3.91-2.5,1.86-1.06-2.05,4.88-3.63,3.67,7.49.33-.12.54-3.97,2.13.18-.14,1.85c-.09,1.01-.26,1.86-.51,2.53-.24.66-.64,1.2-1.19,1.61Zm9.09-6.77c-1.13.85-2.24,1.18-3.33,1.01-1.1-.18-2.06-.82-2.88-1.92-.59-.79-1.01-1.59-1.25-2.38-.23-.81-.31-1.58-.23-2.32.09-.75.33-1.45.72-2.11.4-.67.95-1.26,1.65-1.77,1.13-.85,2.25-1.18,3.35-1,1.09.17,2.05.8,2.87,1.9.59.79,1,1.59,1.24,2.4.25.8.32,1.57.23,2.32-.08.74-.32,1.45-.72,2.11-.39.66-.93,1.24-1.63,1.76Zm-1.13-1.88c.51-.38.81-.85.9-1.4.1-.56-.02-1.16-.35-1.81l-.72-1.41c-.05-.11-.11-.23-.19-.36-.07-.14-.15-.26-.22-.36-.37-.49-.77-.76-1.2-.8-.43-.06-.86.07-1.3.4-.51.38-.82.85-.92,1.41-.09.55.03,1.15.37,1.8l.72,1.41c.05.11.11.24.19.38.08.13.15.24.22.33.37.49.76.77,1.19.83.43.04.87-.1,1.31-.42Zm6.75-2.61l-4.79-9.3,2.34-1.75,1.15,2.21.08-.06c-.19-.9-.23-1.7-.11-2.39.13-.7.53-1.29,1.19-1.78.41-.3.8-.49,1.17-.57.38-.09.75-.08,1.1,0,.34.08.66.23.96.46.3.22.57.5.81.82.17.23.34.49.49.76.16.26.35.61.58,1.04l2.55,4.96-2.34,1.74-2.71-5.28c-.09-.17-.18-.33-.27-.5-.09-.18-.21-.38-.36-.58-.08-.11-.18-.21-.3-.3-.12-.09-.25-.16-.4-.2-.15-.04-.3-.04-.47,0-.17.02-.34.1-.52.24-.28.21-.47.45-.58.73-.11.28-.16.61-.16.99,0,.25.02.58.07,1,.05.4.17.79.37,1.17l2.49,4.85-2.34,1.74Zm13.5-9.76c-.83.62-1.64,1.05-2.42,1.28-.77.21-1.46.2-2.07-.03l.35-2.28c.48.16.99.17,1.52.04.54-.15,1.05-.41,1.54-.77.48-.36.8-.72.97-1.07.17-.38.14-.71-.08-1.01-.17-.23-.37-.33-.6-.3-.24.01-.5.08-.79.21l-1.38.63c-.36.17-.72.3-1.07.4-.35.09-.68.13-1.02.11-.34-.03-.66-.13-.97-.3-.3-.18-.58-.45-.85-.81-.34-.46-.55-.93-.64-1.42-.08-.51-.04-1,.12-1.48.16-.5.43-.98.8-1.44.36-.47.81-.91,1.35-1.3.74-.55,1.48-.94,2.23-1.16.74-.23,1.38-.27,1.93-.12l-.3,2.27c-.36-.1-.78-.09-1.26.02-.48.11-.96.34-1.43.69-.42.31-.7.64-.84.98-.14.33-.09.65.13.95.17.22.36.33.57.32.21-.03.47-.11.76-.24l1.44-.65c.81-.37,1.53-.53,2.17-.5.64.04,1.21.39,1.72,1.07.34.46.55.94.63,1.45.07.5.02,1-.14,1.52-.17.51-.45,1.02-.85,1.53-.4.49-.9.97-1.53,1.43Z"/>
  <g>
    <path class="cls-10" d="m251.5,358.79l-.34-3.4h-3.95l-1.39,3.4h-3.12l6.18-14.06h4.15l1.53,14.06h-3.06Zm-.89-11.14h-.18l-2.22,5.32h2.82l-.42-5.32Z"/>
    <path class="cls-10" d="m258.47,358.79l1.35-8.1h-2.38l.38-2.3h5.32l-.54,3.14h.12c.87-1.97,2.12-3.14,4.15-3.14h.68l-.52,2.94h-1.83c-1.09,0-1.69.3-2.18.91-.26.32-.71,1.07-.83,1.79l-.79,4.75h-2.94Z"/>
    <path class="cls-10" d="m268.77,354.64c0-3.54,2.05-6.49,5.76-6.49,2.38,0,3.58,1.07,4.03,2.64l-2.4,1.13c-.28-.87-.71-1.41-1.87-1.41s-1.99.77-2.24,2.22l-.2,1.21c-.04.24-.08.62-.08.95,0,1.07.5,1.79,1.83,1.79.85,0,1.45-.28,2.92-2.21l1.83,1.19c-1.37,2.17-2.74,3.38-5.24,3.38-2.82,0-4.35-1.61-4.35-4.39Z"/>
    <path class="cls-10" d="m282.68,343.89h2.94l-1.15,6.99h.1c.79-1.69,1.73-2.72,3.38-2.72,2.03,0,2.84,1.39,2.84,3,0,.58-.06,1.13-.22,2.09l-.93,5.54h-2.94l.99-5.9c.06-.36.14-.75.14-1.25,0-.54-.3-1.23-1.21-1.23-.68,0-1.17.34-1.63.95-.3.4-.81,1.17-.95,2.01l-.91,5.42h-2.94l2.48-14.91Z"/>
    <path class="cls-10" d="m295.29,356.62c0-.44.04-.79.2-1.61l.81-4.31h-3.14l.38-2.3h6.12l-1.55,8.26.34.1,2.82-2.88,1.61,1.43-1.23,1.41c-1.35,1.53-2.48,2.32-3.87,2.32-1.65,0-2.5-.95-2.5-2.42Zm1.67-10.82c0-.14.02-.32.1-.81.14-.85.69-1.33,1.89-1.33s1.65.52,1.65,1.23c0,.14-.02.32-.1.81-.14.85-.68,1.33-1.89,1.33s-1.65-.52-1.65-1.23Z"/>
    <path class="cls-10" d="m309.64,348.4l-1.31,8.46.24.16c2.56-.91,3.48-3.1,3.48-5.28,0-.91-.26-1.83-.69-2.62l2.62-.97c.68.85,1.03,2.12,1.03,3.58,0,4.11-3.38,7.29-6.89,7.29-1.71,0-2.56-.97-2.56-2.48,0-.44.04-.73.12-1.23l.71-4.63h-1.79l.38-2.3h4.65Z"/>
    <path class="cls-10" d="m317.09,354.6c0-3.87,2.44-6.45,6.12-6.45,2.09,0,3.83.95,3.83,2.86,0,1.67-1.09,3.46-7.01,3.69-.02.16-.02.24-.02.34,0,1.11.58,1.73,1.99,1.73,1.15,0,1.79-.4,2.86-1.77l1.83,1.19c-1.09,1.55-2.42,2.84-5.08,2.84-3.06,0-4.53-1.67-4.53-4.43Zm3.2-1.87l-.06.28c3.73-.2,3.97-1.07,3.97-1.73s-.4-1.05-1.29-1.05c-1.27,0-2.24.71-2.62,2.5Z"/>
  </g>
  <g>
    <g>
      <rect class="cls-12" x="203.39" y="292.66" width="18.75" height="7.81"/>
      <path class="cls-7" d="m207.5,289.28l.05,14.07c0,.76.19,1.49.57,2.19.38.7,1.05,1.29,2.01,1.77s2.25.72,3.87.72c1.71,0,3.08-.45,4.1-1.36,1.02-.91,1.68-2.01,1.99-3.31h-4.25v-14.07h-8.33Z"/>
    </g>
    <g>
      <path class="cls-7" d="m232.45,308.03h9.4l-3.13-6.27h-6.27v6.27Zm0-12.51h-9.4l3.13-6.27h6.27v6.27Z"/>
      <rect class="cls-12" x="232.45" y="289.28" width="6.27" height="12.51"/>
      <path class="cls-11" d="m235.56,301.76c0-1.14-.28-2.18-.84-3.13s-1.32-1.71-2.27-2.27c-.95-.56-2-.84-3.13-.84s-2.18.28-3.14.84-1.72,1.32-2.28,2.27-.84,2-.84,3.13.28,2.18.83,3.14c.55.96,1.31,1.72,2.27,2.28s2.02.84,3.17.84,2.18-.28,3.13-.84c.95-.56,1.71-1.32,2.27-2.28s.84-2.01.84-3.14Z"/>
    </g>
    <g>
      <rect class="cls-7" x="242.78" y="303.74" width="18.8" height="4.15"/>
      <polygon class="cls-9" points="251.77 289.16 261.6 289.16 242.75 308.03 242.75 298.45 251.77 289.16"/>
      <rect class="cls-14" x="257.42" y="301.2" width="4.15" height="6.7"/>
    </g>
    <g>
      <rect class="cls-7" x="262.5" y="289.19" width="9.35" height="18.75"/>
      <path class="cls-15" d="m276.53,299.63c0-.65-.16-1.25-.49-1.8s-.76-.99-1.32-1.32c-.55-.33-1.15-.49-1.8-.49s-1.28.16-1.83.49-.99.76-1.32,1.32-.49,1.15-.49,1.8.16,1.28.49,1.83.76.99,1.32,1.32,1.16.49,1.83.49,1.25-.16,1.8-.49c.55-.33.99-.76,1.32-1.32s.49-1.16.49-1.83Z"/>
      <path class="cls-14" d="m281.25,305.44v2.54l-2.61.05-6.76-6.81v-1.04l4.15-.02,5.22,5.29Zm-9.38-10.94v2.54l2.61.05,6.76-6.81v-1.04l-4.15-.02-5.22,5.29Z"/>
    </g>
    <g>
      <path class="cls-7" d="m283.14,297.02v11.01h16.75v-11.01c-.88,1.03-2.05,1.9-3.51,2.61-1.46.71-3.11,1.07-4.94,1.07s-3.47-.36-4.9-1.07-2.57-1.58-3.41-2.61Z"/>
      <path class="cls-14" d="m292.15,298.68h-1.32c-1.45-.09-2.8-.5-4.04-1.21s-2.27-1.67-3.08-2.85c-.81-1.18-1.33-2.48-1.56-3.9v-1.38h18.77c-.02,1.63-.41,3.14-1.19,4.53-.78,1.38-1.84,2.51-3.18,3.37-1.34.86-2.81,1.35-4.42,1.45Z"/>
    </g>
    <g>
      <polygon class="cls-11" points="320.64 302.15 309.88 289.21 301.89 289.21 301.89 291.91 315.4 307.98 320.64 308.01 320.64 302.15"/>
      <path class="cls-7" d="m317.01,308.03l-4.68-18.77h6.2l2.13,8.83v9.94h-3.65Zm-11.51,0l4.68-18.77h-6.2l-2.13,8.83v9.94h3.65Z"/>
    </g>
    <g>
      <path class="cls-14" d="m331.56,307.98h-1.32c-1.45-.11-2.8-.52-4.03-1.24s-2.26-1.66-3.08-2.84c-.82-1.17-1.34-2.47-1.57-3.89v-1.38h18.77c0,1.62-.39,3.13-1.18,4.52-.79,1.39-1.85,2.52-3.19,3.38-1.34.86-2.81,1.35-4.42,1.45Z"/>
      <path class="cls-7" d="m336.28,308.03v-11.51h-4.56v11.51h4.56Zm-8.99-18.75h-5.68v9.35h6.22v-4.84h10.96v-4.56h-11.51v.05Z"/>
    </g>
    <g>
      <path class="cls-7" d="m281.32,325.92c0,1.7-.42,3.26-1.26,4.69s-1.98,2.57-3.42,3.41c-1.44.84-3,1.26-4.7,1.26s-3.26-.42-4.7-1.26-2.58-1.98-3.42-3.41-1.26-2.99-1.26-4.69.42-3.25,1.26-4.68,1.98-2.55,3.42-3.39,3-1.26,4.7-1.26,3.26.42,4.7,1.26c1.44.84,2.58,1.97,3.42,3.39s1.26,2.98,1.26,4.68Z"/>
      <path class="cls-15" d="m276.76,325.92c0-.88-.22-1.68-.65-2.42-.43-.73-1.01-1.31-1.75-1.74s-1.54-.64-2.42-.64-1.69.22-2.43.65c-.74.43-1.33,1.01-1.76,1.75-.43.73-.65,1.53-.65,2.39s.22,1.68.65,2.42c.43.73,1.02,1.32,1.76,1.75.74.43,1.55.65,2.43.65s1.68-.22,2.42-.65,1.32-1.01,1.75-1.75c.43-.73.65-1.54.65-2.42Z"/>
    </g>
    <g>
      <path class="cls-7" d="m290.33,316.52h-8.33v18.75h8.33l10.44-5.22-10.44-5.22v-8.31Zm10.49,5.29c0,.95-.26,1.84-.77,2.66-.51.82-1.21,1.46-2.1,1.94s-1.85.72-2.89.72-2.01-.24-2.88-.72-1.57-1.12-2.09-1.94c-.51-.82-.77-1.7-.77-2.66s.26-1.84.77-2.64c.51-.81,1.21-1.45,2.09-1.93s1.84-.72,2.88-.72,2.01.24,2.89.72,1.59,1.12,2.1,1.93c.51.81.77,1.69.77,2.64Z"/>
      <path class="cls-15" d="m282,335.27v-18.75h8.33v18.75h-8.33Zm18.82-13.46c0,.95-.26,1.84-.77,2.66-.51.82-1.21,1.46-2.1,1.94s-1.85.72-2.89.72-2.01-.24-2.88-.72-1.57-1.12-2.09-1.94c-.51-.82-.77-1.7-.77-2.66s.26-1.84.77-2.64c.51-.81,1.21-1.45,2.09-1.93s1.84-.72,2.88-.72,2.01.24,2.89.72,1.59,1.12,2.1,1.93c.51.81.77,1.69.77,2.64Z"/>
      <path class="cls-14" d="m282,335.27h8.33v-18.75h-8.33v18.75Zm18.82-13.46c0,.95-.26,1.84-.77,2.66-.51.82-1.21,1.46-2.1,1.94s-1.85.72-2.89.72-2.01-.24-2.88-.72-1.57-1.12-2.09-1.94c-.51-.82-.77-1.7-.77-2.66s.26-1.84.77-2.64c.51-.81,1.21-1.45,2.09-1.93s1.84-.72,2.88-.72,2.01.24,2.89.72,1.59,1.12,2.1,1.93c.51.81.77,1.69.77,2.64Z"/>
      <rect class="cls-13" x="282" y="316.52" width="8.33" height="18.75"/>
    </g>
    <g>
      <polygon class="cls-7" points="302.46 322.33 313.37 322.33 313.37 325.87 319.64 325.87 319.64 316.61 302.46 316.61 302.46 322.33"/>
      <path class="cls-13" d="m305.07,327.71c.56,0,1.07.14,1.54.42s.85.66,1.14,1.14.43,1,.43,1.56-.14,1.08-.42,1.56-.66.86-1.14,1.14c-.48.28-1,.42-1.56.42s-1.08-.14-1.56-.42c-.48-.28-.86-.66-1.14-1.14s-.42-1-.42-1.56.14-1.08.42-1.56.66-.86,1.14-1.14,1-.42,1.56-.42Z"/>
      <path class="cls-11" d="m310.24,335.27c1.71,0,3.28-.42,4.72-1.25s2.58-1.97,3.42-3.42,1.26-3.02,1.26-4.73h-6.27c0,.53-.15,1.03-.45,1.49-.3.46-.7.84-1.18,1.12s-.99.45-1.52.5l.02,6.29Z"/>
    </g>
    <g>
      <rect class="cls-14" x="320.57" y="331.07" width="18.8" height="4.15"/>
      <rect class="cls-7" x="320.57" y="316.52" width="5.18" height="18.75"/>
      <path class="cls-15" d="m339.34,327.69v-4.15h-18.8v4.15h18.8Zm-18.8-7.06h18.8v-4.15h-18.8v4.15Z"/>
    </g>
    <g>
      <path class="cls-7" d="m340.27,325.89l6.29-.02c0,.58.14,1.1.42,1.59.28.48.66.86,1.14,1.14.48.27,1,.41,1.56.41v6.27c-1.7,0-3.26-.42-4.69-1.26-1.43-.84-2.57-1.98-3.42-3.42s-1.28-3-1.29-4.7Z"/>
      <path class="cls-8" d="m355.91,329c0,1.14-.28,2.18-.84,3.14-.56.96-1.32,1.72-2.28,2.28s-2.01.84-3.14.84v-6.27h6.27Z"/>
      <path class="cls-11" d="m359.09,325.89h-6.27c0-.56-.14-1.08-.42-1.57-.28-.48-.66-.87-1.15-1.15-.48-.28-1.01-.42-1.57-.42s-1.08.14-1.57.42c-.48.28-.87.66-1.15,1.15-.28.48-.42,1.01-.42,1.57h-6.27c0-1.71.42-3.28,1.26-4.72s1.98-2.58,3.42-3.42,3.01-1.26,4.72-1.26,3.28.42,4.72,1.26c1.44.84,2.58,1.98,3.42,3.42s1.26,3.01,1.26,4.72Z"/>
    </g>
    <g>
      <path class="cls-9" d="m372.53,325.89v-6.27h6.27v6.27h-6.27Zm-12.53,0v-6.27h6.27v6.27h-6.27Z"/>
      <rect class="cls-7" x="366.27" y="316.49" width="6.27" height="9.4"/>
      <path class="cls-14" d="m375.66,335.27h0v-6.29c-.56-.02-1.08-.17-1.56-.45-.48-.29-.86-.67-1.15-1.14s-.43-.98-.43-1.52h-6.27c0,1.71.42,3.28,1.26,4.72s1.98,2.58,3.42,3.42c1.44.84,3.01,1.26,4.72,1.26Z"/>
    </g>
    <g>
      <polygon class="cls-11" points="380.73 325.69 397.46 332.14 397.46 326.91 380.73 320.74 380.73 325.69"/>
      <path class="cls-7" d="m380.75,325.85h-1.04v9.38h1.04v-9.38Zm16.71,0v-9.38h1.04v9.38h-1.04Zm-16.73,1.07v7.04c1.1.36,2.41.67,3.9.93,1.5.26,3.04.39,4.63.39s3.1-.12,4.54-.37c1.44-.25,2.66-.55,3.65-.9v-7.08c-.56.47-1.54.87-2.94,1.19-1.4.33-3.17.49-5.32.49s-3.94-.16-5.38-.49c-1.44-.33-2.47-.72-3.09-1.19Zm0-9.04v7.04c.62-.47,1.65-.87,3.09-1.19,1.44-.33,3.23-.49,5.38-.49s3.92.16,5.32.49c1.4.33,2.38.72,2.94,1.19v-7.08c-1-.35-2.22-.65-3.65-.9-1.44-.25-2.95-.37-4.54-.37s-3.13.13-4.63.39c-1.5.26-2.8.57-3.9.93Z"/>
    </g>
  </g>
</svg>