<?xml version="1.0" encoding="UTF-8"?>
<svg id="Ebene_1" data-name="Ebene 1" xmlns="http://www.w3.org/2000/svg" viewBox="0 0 890 123">
  <defs>
    <style>
      .cls-1 {
        fill: #1c1c1c;
      }

      .cls-1, .cls-2, .cls-3, .cls-4, .cls-5, .cls-6, .cls-7 {
        stroke-width: 0px;
      }

      .cls-2 {
        fill: #ab05f2;
      }

      .cls-3 {
        fill: #85a6ff;
      }

      .cls-4 {
        fill: #3317f2;
      }

      .cls-5 {
        fill: #ff5c1c;
      }

      .cls-6 {
        fill: #ffa30d;
      }

      .cls-7 {
        fill: #fff;
      }
    </style>
  </defs>
  <g>
    <rect class="cls-7" x="350.05" y="7.32" width="8.69" height="48.64"/>
    <rect class="cls-2" x="359.09" y="7.32" width="5.21" height="48.64"/>
    <rect class="cls-7" x="364.65" y="7.32" width="10.42" height="48.64"/>
    <rect class="cls-7" x="382.71" y="7.32" width="1.39" height="48.64"/>
    <rect class="cls-7" x="393.48" y="7.32" width="3.47" height="48.64"/>
    <rect class="cls-7" x="411.55" y="7.32" width="6.95" height="48.64"/>
    <rect class="cls-6" x="418.84" y="7.32" width="3.47" height="48.64"/>
    <rect class="cls-7" x="422.67" y="7.32" width="8.69" height="48.64"/>
    <rect class="cls-4" x="431.7" y="7.32" width="12.16" height="48.64"/>
    <rect class="cls-7" x="444.21" y="7.32" width="1.39" height="48.64"/>
    <rect class="cls-3" x="445.94" y="7.32" width="6.95" height="48.64"/>
    <rect class="cls-7" x="453.24" y="7.32" width="10.42" height="48.64"/>
    <rect class="cls-2" x="464.01" y="7.32" width="5.21" height="48.64"/>
    <rect class="cls-7" x="469.57" y="7.32" width="3.47" height="48.64"/>
    <rect class="cls-5" x="473.39" y="7.32" width="8.69" height="48.64"/>
    <rect class="cls-7" x="482.42" y="7.32" width="1.74" height="48.64"/>
    <rect class="cls-2" x="484.51" y="7.32" width="10.42" height="48.64"/>
    <rect class="cls-7" x="495.28" y="7.32" width="3.47" height="48.64"/>
    <rect class="cls-1" x="499.1" y="7.32" width="12.16" height="48.64"/>
    <rect class="cls-7" x="511.61" y="7.32" width="6.95" height="48.64"/>
    <rect class="cls-6" x="518.9" y="7.32" width="8.69" height="48.64"/>
    <rect class="cls-7" x="527.93" y="7.32" width="1.39" height="48.64"/>
    <rect class="cls-4" x="524.51" y="7.32" width="8.63" height="48.64"/>
    <rect class="cls-7" x="533.49" y="7.32" width="5.21" height="48.64"/>
    <rect class="cls-3" x="544.96" y="7.32" width="1.04" height="48.64"/>
    <rect class="cls-7" x="546.35" y="7.32" width="1.39" height="48.64"/>
    <rect class="cls-2" x="548.09" y="7.32" width="5.21" height="48.64"/>
    <rect class="cls-7" x="553.64" y="7.32" width="10.42" height="48.64"/>
    <rect class="cls-5" x="564.41" y="26.64" width="5.21" height="29.32"/>
    <rect class="cls-7" x="569.97" y="7.32" width="3.47" height="48.64"/>
    <rect class="cls-2" x="567.53" y="18.84" width="1.67" height="37.12"/>
    <rect class="cls-7" x="588.04" y="7.32" width="3.47" height="48.64"/>
    <rect class="cls-7" x="600.89" y="7.32" width="1.39" height="48.64"/>
    <rect class="cls-6" x="602.63" y="7.32" width="12.16" height="48.64"/>
    <rect class="cls-7" x="615.14" y="7.32" width="3.47" height="48.64"/>
    <rect class="cls-4" x="618.96" y="7.32" width="5.21" height="48.64"/>
    <rect class="cls-7" x="624.52" y="7.32" width="10.42" height="48.64"/>
    <rect class="cls-3" x="635.29" y="7.32" width="6.95" height="48.64"/>
    <rect class="cls-7" x="642.58" y="7.32" width="3.47" height="48.64"/>
    <rect class="cls-2" x="646.41" y="7.32" width="8.69" height="48.64"/>
    <rect class="cls-7" x="655.44" y="7.32" width="3.47" height="48.64"/>
    <rect class="cls-5" x="659.26" y="7.32" width="6.95" height="48.64"/>
    <rect class="cls-7" x="666.56" y="7.32" width="1.39" height="48.64"/>
    <rect class="cls-7" x="680.8" y="7.32" width="3.47" height="48.64"/>
    <rect class="cls-1" x="690.53" y="7.32" width="1.04" height="48.64"/>
    <rect class="cls-7" x="691.92" y="7.32" width="1.39" height="48.64"/>
    <rect class="cls-6" x="693.66" y="7.32" width="5.21" height="48.64"/>
    <rect class="cls-7" x="699.21" y="7.32" width="3.47" height="48.64"/>
    <rect class="cls-7" x="710.33" y="7.32" width="1.74" height="48.64"/>
    <rect class="cls-7" x="724.92" y="7.32" width="1.39" height="48.64"/>
    <rect class="cls-2" x="726.66" y="7.32" width="6.95" height="48.64"/>
    <rect class="cls-7" x="733.96" y="7.32" width="10.42" height="48.64"/>
    <rect class="cls-5" x="744.73" y="7.32" width="3.47" height="48.64"/>
    <rect class="cls-7" x="748.55" y="7.32" width="5.21" height="48.64"/>
    <rect class="cls-2" x="754.11" y="7.32" width="8.69" height="48.64"/>
    <rect class="cls-7" x="763.14" y="7.32" width="3.47" height="48.64"/>
    <rect class="cls-1" x="766.96" y="7.32" width="6.95" height="48.64"/>
    <rect class="cls-7" x="774.26" y="7.32" width="1.39" height="48.64"/>
    <rect class="cls-6" x="775.99" y="7.32" width="8.69" height="48.64"/>
    <rect class="cls-7" x="785.03" y="7.32" width="6.95" height="48.64"/>
    <rect class="cls-4" x="792.32" y="7.32" width="5.21" height="48.64"/>
    <rect class="cls-7" x="797.88" y="7.32" width="1.39" height="48.64"/>
    <rect class="cls-3" x="810.49" y="7.32" width="1.29" height="48.64"/>
    <rect class="cls-7" x="812.13" y="7.32" width="3.47" height="48.64"/>
    <rect class="cls-2" x="815.95" y="7.32" width="6.95" height="48.64"/>
    <rect class="cls-7" x="823.24" y="7.32" width="3.47" height="48.64"/>
    <rect class="cls-5" x="827.07" y="7.32" width="5.21" height="48.64"/>
    <rect class="cls-7" x="832.62" y="7.32" width="1.39" height="48.64"/>
    <rect class="cls-2" x="834.36" y="7.32" width="10.42" height="48.64"/>
    <rect class="cls-7" x="845.13" y="7.32" width="3.47" height="48.64"/>
    <rect class="cls-1" x="848.95" y="7.32" width="8.69" height="48.64"/>
    <rect class="cls-7" x="857.99" y="7.32" width="1.39" height="48.64"/>
    <rect class="cls-6" x="859.72" y="7.32" width="5.21" height="48.64"/>
    <rect class="cls-7" x="865.28" y="7.32" width="3.47" height="48.64"/>
    <rect class="cls-4" x="869.1" y="7.32" width="12.16" height="48.64"/>
    <rect class="cls-7" x="817.61" y="21.32" width="1.39" height="48.64"/>
  </g>
  <g>
    <rect class="cls-5" x="26.7" y="68.48" width="8.15" height="45.57"/>
    <rect class="cls-7" x="35.25" y="68.48" width="6.11" height="45.57"/>
    <rect class="cls-2" x="41.77" y="68.48" width=".89" height="45.57"/>
    <rect class="cls-7" x="56.43" y="68.48" width="1.63" height="45.57"/>
    <rect class="cls-1" x="58.47" y="68.48" width="4.07" height="45.57"/>
    <rect class="cls-7" x="62.95" y="68.48" width="10.18" height="45.57"/>
    <rect class="cls-6" x="73.54" y="68.48" width="4.07" height="45.57"/>
    <rect class="cls-7" x="78.02" y="68.48" width="1.63" height="45.57"/>
    <rect class="cls-4" x="80.06" y="68.48" width="8.15" height="45.57"/>
    <rect class="cls-7" x="88.61" y="68.48" width="4.07" height="45.57"/>
    <rect class="cls-3" x="93.09" y="68.48" width="6.11" height="45.57"/>
    <rect class="cls-7" x="99.61" y="68.48" width="1.63" height="45.57"/>
    <rect class="cls-2" x="101.65" y="68.48" width="10.18" height="45.57"/>
    <rect class="cls-7" x="112.24" y="68.48" width="4.07" height="45.57"/>
    <rect class="cls-5" x="116.72" y="68.48" width="8.15" height="45.57"/>
    <rect class="cls-7" x="125.27" y="68.48" width="6.11" height="45.57"/>
    <rect class="cls-2" x="131.79" y="68.48" width="14.26" height="45.57"/>
    <rect class="cls-7" x="146.45" y="68.48" width="1.63" height="45.57"/>
    <rect class="cls-1" x="148.49" y="68.48" width="4.07" height="45.57"/>
    <rect class="cls-7" x="152.97" y="68.48" width="10.18" height="45.57"/>
    <rect class="cls-6" x="163.56" y="68.48" width=".49" height="45.57"/>
    <rect class="cls-7" x="168.04" y="68.48" width="1.63" height="45.57"/>
    <rect class="cls-4" x="170.08" y="68.48" width="8.15" height="45.57"/>
    <rect class="cls-7" x="178.63" y="68.48" width="4.07" height="45.57"/>
    <rect class="cls-3" x="183.11" y="68.48" width="6.11" height="45.57"/>
    <rect class="cls-7" x="189.63" y="68.48" width="1.63" height="45.57"/>
    <rect class="cls-2" x="191.66" y="68.48" width="10.18" height="45.57"/>
    <rect class="cls-7" x="202.25" y="68.48" width="4.07" height="45.57"/>
    <rect class="cls-5" x="206.73" y="68.48" width="2.12" height="45.57"/>
    <rect class="cls-7" x="215.29" y="68.48" width="6.11" height="45.57"/>
    <rect class="cls-2" x="221.8" y="68.48" width="14.26" height="45.57"/>
    <rect class="cls-7" x="236.47" y="68.48" width="1.63" height="45.57"/>
    <rect class="cls-1" x="238.5" y="68.48" width="4.07" height="45.57"/>
    <rect class="cls-7" x="242.98" y="68.48" width="10.18" height="45.57"/>
    <rect class="cls-6" x="253.57" y="68.48" width="4.07" height="45.57"/>
    <rect class="cls-7" x="258.06" y="68.48" width="1.63" height="45.57"/>
    <rect class="cls-4" x="260.09" y="68.48" width="8.15" height="45.57"/>
    <rect class="cls-7" x="268.65" y="68.48" width="4.07" height="45.57"/>
    <rect class="cls-3" x="273.13" y="68.48" width="6.11" height="45.57"/>
    <rect class="cls-7" x="279.64" y="68.48" width="1.63" height="45.57"/>
    <rect class="cls-2" x="281.68" y="68.48" width="2.52" height="45.57"/>
    <rect class="cls-7" x="292.27" y="68.48" width="4.07" height="45.57"/>
    <rect class="cls-5" x="296.75" y="68.48" width="8.15" height="45.57"/>
    <rect class="cls-7" x="305.3" y="68.48" width="6.11" height="45.57"/>
    <rect class="cls-2" x="311.82" y="68.48" width="14.26" height="45.57"/>
    <rect class="cls-7" x="326.48" y="68.48" width="1.63" height="45.57"/>
    <rect class="cls-1" x="328.52" y="68.48" width="4.07" height="45.57"/>
    <rect class="cls-7" x="333" y="68.48" width="10.18" height="45.57"/>
    <rect class="cls-6" x="343.59" y="68.48" width="4.07" height="45.57"/>
    <rect class="cls-7" x="348.07" y="68.48" width="1.63" height="45.57"/>
    <rect class="cls-4" x="350.11" y="68.48" width="61.18" height="45.57"/>
    <rect class="cls-7" x="358.66" y="68.48" width="4.07" height="45.57"/>
    <rect class="cls-3" x="363.14" y="68.48" width="6.11" height="45.57"/>
    <rect class="cls-7" x="369.66" y="68.48" width="1.63" height="45.57"/>
    <rect class="cls-2" x="365.26" y="68.38" width="10.18" height="45.57"/>
    <rect class="cls-7" x="382.29" y="68.48" width="4.07" height="45.57"/>
    <rect class="cls-5" x="384.4" y="68.38" width="13.85" height="45.57"/>
    <rect class="cls-7" x="395.32" y="68.48" width="6.11" height="45.57"/>
    <rect class="cls-2" x="401.84" y="68.48" width="4.15" height="45.57"/>
    <rect class="cls-7" x="416.5" y="68.48" width="1.63" height="45.57"/>
    <rect class="cls-1" x="418.54" y="68.48" width="4.07" height="45.57"/>
    <rect class="cls-7" x="377.07" y="68.48" width="56.13" height="45.57"/>
    <rect class="cls-6" x="433.61" y="68.48" width="4.07" height="45.57"/>
    <rect class="cls-7" x="438.09" y="68.48" width="1.63" height="45.57"/>
    <rect class="cls-4" x="440.12" y="68.48" width="8.15" height="45.57"/>
    <rect class="cls-7" x="448.68" y="68.48" width="4.07" height="45.57"/>
    <rect class="cls-3" x="453.16" y="68.48" width="6.11" height="45.57"/>
    <rect class="cls-7" x="459.68" y="68.48" width="1.63" height="45.57"/>
    <rect class="cls-2" x="461.71" y="68.48" width="10.18" height="45.57"/>
    <rect class="cls-7" x="472.3" y="68.48" width="4.07" height="45.57"/>
    <rect class="cls-5" x="476.78" y="68.48" width="8.15" height="45.57"/>
    <rect class="cls-7" x="485.34" y="68.48" width="6.11" height="45.57"/>
    <rect class="cls-2" x="491.85" y="68.48" width="14.26" height="45.57"/>
    <rect class="cls-7" x="506.52" y="68.48" width="1.63" height="45.57"/>
    <rect class="cls-1" x="508.55" y="68.48" width="4.07" height="45.57"/>
    <rect class="cls-7" x="513.03" y="68.48" width="10.18" height="45.57"/>
    <rect class="cls-6" x="523.62" y="68.48" width="4.07" height="45.57"/>
    <rect class="cls-7" x="528.1" y="68.48" width="1.63" height="45.57"/>
    <rect class="cls-4" x="530.14" y="68.48" width="8.15" height="45.57"/>
    <rect class="cls-7" x="538.7" y="68.48" width="4.07" height="45.57"/>
    <rect class="cls-3" x="543.18" y="68.48" width="6.11" height="45.57"/>
    <rect class="cls-7" x="549.69" y="68.48" width="1.63" height="45.57"/>
  </g>
</svg>