<?xml version="1.0" encoding="UTF-8"?>
<svg id="Ebene_1" data-name="Ebene 1" xmlns="http://www.w3.org/2000/svg" viewBox="0 0 890 136">
  <defs>
    <style>
      .cls-1 {
        fill: #1c1c1c;
      }

      .cls-1, .cls-2, .cls-3, .cls-4, .cls-5, .cls-6, .cls-7 {
        stroke-width: 0px;
      }

      .cls-2 {
        fill: #ab05f2;
      }

      .cls-3 {
        fill: #85a6ff;
      }

      .cls-4 {
        fill: #3317f2;
      }

      .cls-5 {
        fill: #ff5c1c;
      }

      .cls-6 {
        fill: #ffa30d;
      }

      .cls-7 {
        fill: #fff;
      }
    </style>
  </defs>
  <g>
    <rect class="cls-7" x="302.07" y="7.75" width="3.88" height="54.35"/>
    <rect class="cls-5" x="306.34" y="7.75" width="5.82" height="54.35"/>
    <rect class="cls-7" x="312.55" y="7.75" width="1.55" height="54.35"/>
    <rect class="cls-2" x="314.49" y="7.75" width="7.76" height="54.35"/>
    <rect class="cls-7" x="322.64" y="7.75" width="3.88" height="54.35"/>
    <rect class="cls-1" x="326.91" y="7.75" width="13.59" height="54.35"/>
    <rect class="cls-7" x="340.89" y="7.75" width="3.88" height="54.35"/>
    <rect class="cls-6" x="345.16" y="7.75" width="5.82" height="54.35"/>
    <rect class="cls-7" x="351.37" y="7.75" width="1.55" height="54.35"/>
    <rect class="cls-4" x="353.31" y="7.75" width="9.7" height="54.35"/>
    <rect class="cls-7" x="363.4" y="7.75" width="3.88" height="54.35"/>
    <rect class="cls-3" x="367.67" y="7.75" width="5.82" height="54.35"/>
    <rect class="cls-7" x="373.88" y="7.75" width="1.32" height="54.35"/>
    <rect class="cls-2" x="375.83" y="7.75" width="9.7" height="54.35"/>
    <rect class="cls-7" x="385.92" y="7.75" width="3.88" height="54.35"/>
    <rect class="cls-5" x="390.19" y="7.75" width="7.76" height="54.35"/>
    <rect class="cls-7" x="398.34" y="7.75" width="5.82" height="54.35"/>
    <rect class="cls-2" x="404.55" y="7.75" width=".85" height="54.35"/>
    <rect class="cls-7" x="418.53" y="7.75" width="1.55" height="54.35"/>
    <rect class="cls-1" x="420.47" y="7.75" width="3.88" height="54.35"/>
    <rect class="cls-7" x="424.74" y="7.75" width="9.7" height="54.35"/>
    <rect class="cls-6" x="434.83" y="7.75" width="3.88" height="54.35"/>
    <rect class="cls-7" x="439.1" y="7.75" width="1.55" height="54.35"/>
    <rect class="cls-4" x="441.04" y="7.75" width="7.76" height="54.35"/>
    <rect class="cls-7" x="449.19" y="7.75" width="3.88" height="54.35"/>
    <rect class="cls-3" x="453.46" y="7.75" width="5.82" height="54.35"/>
    <rect class="cls-7" x="459.68" y="7.75" width="1.55" height="54.35"/>
    <rect class="cls-2" x="461.62" y="7.75" width="9.7" height="54.35"/>
    <rect class="cls-7" x="471.71" y="7.75" width="3.88" height="54.35"/>
    <rect class="cls-5" x="475.98" y="7.75" width="7.76" height="54.35"/>
    <rect class="cls-7" x="484.13" y="7.75" width="5.82" height="54.35"/>
    <rect class="cls-2" x="490.34" y="7.75" width="13.59" height="54.35"/>
    <rect class="cls-7" x="504.32" y="7.75" width="1.55" height="54.35"/>
    <rect class="cls-1" x="506.26" y="7.75" width="3.88" height="54.35"/>
    <rect class="cls-7" x="510.53" y="7.75" width="9.7" height="54.35"/>
    <rect class="cls-6" x="520.62" y="7.75" width=".46" height="54.35"/>
    <rect class="cls-7" x="524.89" y="7.75" width="1.55" height="54.35"/>
    <rect class="cls-4" x="526.83" y="7.75" width="7.76" height="54.35"/>
    <rect class="cls-7" x="534.99" y="7.75" width="3.88" height="54.35"/>
    <rect class="cls-3" x="539.26" y="7.75" width="5.82" height="54.35"/>
    <rect class="cls-7" x="545.47" y="7.75" width="1.55" height="54.35"/>
    <rect class="cls-2" x="531.42" y="7.75" width="25.69" height="54.35"/>
    <rect class="cls-7" x="557.5" y="7.75" width="3.88" height="54.35"/>
    <rect class="cls-5" x="561.77" y="7.75" width="1.16" height="38.84"/>
    <rect class="cls-7" x="569.92" y="7.75" width="5.82" height="54.35"/>
    <rect class="cls-7" x="590.11" y="7.75" width="1.55" height="54.35"/>
    <rect class="cls-1" x="592.05" y="7.75" width="3.88" height="54.35"/>
    <rect class="cls-7" x="596.32" y="7.75" width="9.7" height="54.35"/>
    <rect class="cls-6" x="606.41" y="7.75" width="3.88" height="54.35"/>
    <rect class="cls-7" x="610.68" y="7.75" width="1.55" height="54.35"/>
    <rect class="cls-4" x="612.63" y="7.75" width="7.76" height="54.35"/>
    <rect class="cls-7" x="620.78" y="7.75" width="3.88" height="54.35"/>
    <rect class="cls-3" x="625.05" y="7.75" width="5.82" height="54.35"/>
    <rect class="cls-7" x="631.26" y="7.75" width="1.55" height="54.35"/>
    <rect class="cls-2" x="633.2" y="7.75" width="2.41" height="54.35"/>
    <rect class="cls-7" x="643.29" y="7.75" width="3.88" height="54.35"/>
    <rect class="cls-5" x="647.56" y="7.75" width="7.76" height="54.35"/>
    <rect class="cls-7" x="655.72" y="7.75" width="5.82" height="54.35"/>
    <rect class="cls-2" x="661.93" y="7.75" width="13.59" height="54.35"/>
    <rect class="cls-7" x="675.9" y="7.75" width="1.55" height="54.35"/>
    <rect class="cls-1" x="677.84" y="7.75" width="3.88" height="54.35"/>
    <rect class="cls-7" x="682.11" y="7.75" width="9.7" height="54.35"/>
    <rect class="cls-6" x="692.21" y="7.75" width="3.88" height="54.35"/>
    <rect class="cls-7" x="696.48" y="7.75" width="1.55" height="54.35"/>
    <rect class="cls-4" x="698.42" y="7.75" width="58.31" height="54.35"/>
    <rect class="cls-7" x="706.57" y="7.75" width="3.88" height="54.35"/>
    <rect class="cls-3" x="710.84" y="7.75" width="5.82" height="54.35"/>
    <rect class="cls-7" x="717.05" y="7.75" width="1.55" height="54.35"/>
    <rect class="cls-2" x="712.86" y="7.63" width="9.7" height="54.35"/>
    <rect class="cls-7" x="729.08" y="7.75" width="3.88" height="54.35"/>
    <rect class="cls-5" x="731.1" y="7.63" width="13.2" height="54.35"/>
    <rect class="cls-7" x="741.51" y="7.75" width="5.82" height="54.35"/>
    <rect class="cls-2" x="747.72" y="7.75" width="3.96" height="54.35"/>
    <rect class="cls-7" x="761.69" y="7.75" width="1.55" height="54.35"/>
    <rect class="cls-1" x="763.63" y="7.75" width="3.88" height="54.35"/>
    <rect class="cls-7" x="724.11" y="6.5" width="53.5" height="57.63"/>
    <rect class="cls-6" x="778" y="7.75" width="3.88" height="54.35"/>
    <rect class="cls-7" x="782.27" y="7.75" width="1.55" height="54.35"/>
    <rect class="cls-4" x="784.21" y="7.75" width="7.76" height="54.35"/>
    <rect class="cls-7" x="792.36" y="7.75" width="3.88" height="54.35"/>
    <rect class="cls-3" x="796.63" y="7.75" width="5.82" height="54.35"/>
    <rect class="cls-7" x="802.84" y="7.75" width="1.55" height="54.35"/>
    <rect class="cls-2" x="804.78" y="7.75" width="9.7" height="54.35"/>
    <rect class="cls-7" x="814.88" y="7.75" width="3.88" height="54.35"/>
    <rect class="cls-5" x="819.15" y="7.75" width="7.76" height="54.35"/>
    <rect class="cls-7" x="827.3" y="7.75" width="5.82" height="54.35"/>
    <rect class="cls-2" x="833.51" y="7.75" width="13.59" height="54.35"/>
    <rect class="cls-7" x="847.48" y="7.75" width="1.55" height="54.35"/>
    <rect class="cls-1" x="849.42" y="7.75" width="3.88" height="54.35"/>
    <rect class="cls-7" x="853.7" y="7.75" width="9.7" height="54.35"/>
    <rect class="cls-6" x="863.79" y="7.75" width="3.88" height="54.35"/>
    <rect class="cls-7" x="868.06" y="7.75" width="1.55" height="54.35"/>
    <rect class="cls-4" x="870" y="7.75" width="7.76" height="54.35"/>
    <rect class="cls-7" x="878.15" y="7.75" width="3.88" height="54.35"/>
    <rect class="cls-3" x="882.42" y="7.75" width="5.82" height="54.35"/>
    <rect class="cls-7" x="888.63" y="7.75" width="1.55" height="54.35"/>
    <rect class="cls-7" x="380.87" y="7.75" width="1.32" height="54.35"/>
  </g>
  <g>
    <rect class="cls-2" x="461.96" y="72.56" width="18.95" height="55.18"/>
    <rect class="cls-7" x="481.67" y="72.56" width="3.03" height="55.18"/>
    <rect class="cls-1" x="485.46" y="72.56" width="7.58" height="55.18"/>
    <rect class="cls-7" x="493.8" y="72.56" width="11.37" height="55.18"/>
    <rect class="cls-6" x="505.92" y="85.18" width="15.16" height="42.57"/>
    <rect class="cls-7" x="521.84" y="72.56" width="3.03" height="55.18"/>
    <rect class="cls-4" x="549.89" y="72.56" width="2.27" height="55.18"/>
    <rect class="cls-7" x="552.91" y="72.56" width="7.58" height="55.18"/>
    <rect class="cls-3" x="561.25" y="68" width="11.37" height="59.74"/>
    <rect class="cls-7" x="573.38" y="72.56" width="18.95" height="55.18"/>
    <rect class="cls-2" x="5.08" y="72.44" width="26.53" height="55.18"/>
    <rect class="cls-7" x="32.37" y="72.44" width="3.03" height="55.18"/>
    <rect class="cls-1" x="36.16" y="72.44" width="7.58" height="55.18"/>
    <rect class="cls-7" x="44.5" y="72.44" width="18.95" height="55.18"/>
    <rect class="cls-6" x="123.29" y="64.13" width="7.58" height="63.48"/>
    <rect class="cls-7" x="92.25" y="72.44" width="7.58" height="55.18"/>
    <rect class="cls-3" x="100.58" y="72.44" width="11.37" height="55.18"/>
    <rect class="cls-7" x="112.71" y="72.44" width="3.03" height="55.18"/>
    <rect class="cls-2" x="116.5" y="72.44" width="18.95" height="55.18"/>
    <rect class="cls-7" x="136.21" y="72.44" width="7.58" height="55.18"/>
    <rect class="cls-5" x="144.54" y="72.44" width="15.16" height="55.18"/>
    <rect class="cls-7" x="160.46" y="72.44" width="11.37" height="55.18"/>
    <rect class="cls-2" x="172.59" y="72.44" width="26.53" height="55.18"/>
    <rect class="cls-7" x="199.87" y="72.44" width="3.03" height="55.18"/>
    <rect class="cls-1" x="203.66" y="72.44" width="7.58" height="55.18"/>
    <rect class="cls-7" x="212" y="72.44" width="18.95" height="55.18"/>
    <rect class="cls-6" x="231.7" y="72.44" width="7.58" height="55.18"/>
    <rect class="cls-7" x="240.04" y="72.44" width="3.03" height="55.18"/>
    <rect class="cls-4" x="243.83" y="72.44" width="15.16" height="55.18"/>
    <rect class="cls-7" x="259.75" y="72.44" width="7.58" height="55.18"/>
    <rect class="cls-3" x="268.08" y="72.44" width="11.37" height="55.18"/>
    <rect class="cls-7" x="280.21" y="72.44" width="3.03" height="55.18"/>
    <rect class="cls-2" x="284" y="72.44" width="18.95" height="55.18"/>
    <rect class="cls-7" x="303.71" y="72.44" width="7.58" height="55.18"/>
    <rect class="cls-7" x="327.96" y="72.44" width="11.37" height="55.18"/>
    <rect class="cls-2" x="340.09" y="72.44" width="26.53" height="55.18"/>
    <rect class="cls-7" x="367.37" y="72.44" width="3.03" height="55.18"/>
    <rect class="cls-1" x="371.16" y="72.44" width="7.58" height="55.18"/>
    <rect class="cls-6" x="399.21" y="72.44" width="7.58" height="55.18"/>
    <rect class="cls-7" x="407.54" y="72.44" width="3.03" height="55.18"/>
    <rect class="cls-4" x="411.33" y="72.44" width="15.16" height="55.18"/>
    <rect class="cls-7" x="427.25" y="72.44" width="7.58" height="55.18"/>
    <rect class="cls-3" x="435.59" y="72.44" width="11.37" height="55.18"/>
    <rect class="cls-7" x="447.71" y="72.44" width="3.03" height="55.18"/>
  </g>
</svg>