<svg width="44" height="31" viewBox="0 0 44 31" fill="none" xmlns="http://www.w3.org/2000/svg">
<path d="M5.31254 17.5493C6.6243 23.5951 15.0837 26.7142 24.2253 24.5104C28.7028 23.4085 32.1892 20.7675 33.5418 17.7883L32.1367 17.6951C30.8249 20.097 27.7467 22.2075 23.9513 23.1637C15.4918 25.2275 7.7087 22.5865 6.57766 17.2578C5.39999 11.9291 11.3292 5.92997 19.742 3.91276C26.3941 2.28034 32.7255 3.00327 36.9349 5.39943L37.5703 4.24508C33.0462 1.65069 26.3941 0.886953 19.4738 2.56601C10.3381 4.77561 4.00077 11.4919 5.31254 17.5376V17.5493Z" fill="#FF5B1C"/>
<path d="M43.0858 11.2177C42.8118 9.92347 42.2696 8.76911 41.5001 7.71387L40.7888 8.89737C40.7888 8.89737 41.5875 10.4482 41.8149 11.5034C42.5378 14.7683 41.1794 18.6044 38.1944 22.0617C35.0287 25.7113 30.4113 28.399 25.3041 29.6466C24.9427 29.7399 24.7153 30.078 24.8086 30.4628C24.9018 30.8476 25.2167 31.04 25.5781 30.9934C36.6145 28.3057 44.8057 19.0883 43.0858 11.2177Z" fill="#FF5B1C"/>
<path d="M1.82583 19.0412C1.1029 15.7764 2.41467 11.9402 5.44631 8.48297C6.67063 7.08958 8.11648 5.7953 9.74308 4.69342L9.06679 3.53906C3.00351 7.7134 -0.616967 13.9049 0.560708 19.3735C1.55765 23.9327 5.85442 27.1975 11.597 28.3985L11.8711 27.1042C6.57735 26.0023 2.68868 23.1223 1.82583 19.0412Z" fill="#84A6FF"/>
<path d="M38.3342 13.0428C37.0224 6.99703 28.5629 3.87794 19.4214 6.08171C15.0313 7.13696 11.5974 9.73134 10.1924 12.658L11.5508 12.8038C12.8626 10.4543 15.8942 8.33795 19.6954 7.42846C28.1082 5.36461 35.8913 8.05228 37.0224 13.381C38.2467 18.663 32.3175 24.6622 23.9047 26.726C21.7243 27.274 19.5497 27.548 17.4916 27.5772L17.0835 28.9356C19.3573 28.9414 21.7476 28.6558 24.1787 28.0203C33.3145 25.8107 39.6517 19.0944 38.34 13.0487L38.3342 13.0428Z" fill="#84A6FF"/>
<path d="M23.813 11.8208H18.1142C17.576 11.8208 17.1396 12.2308 17.1396 12.7365V18.5265C17.1396 19.0322 17.576 19.4422 18.1142 19.4422H23.813C24.3513 19.4422 24.7876 19.0322 24.7876 18.5265V12.7365C24.7876 12.2308 24.3513 11.8208 23.813 11.8208Z" fill="#FEA30C"/>
<path d="M11.6663 3.65523C13.0247 3.03142 14.1965 2.67578 15.689 2.33764C16.0505 2.24436 16.2778 1.90621 16.1846 1.52143C16.0913 1.13664 15.7765 0.897609 15.415 0.99089C13.8292 1.37568 12.3367 1.90038 10.9375 2.5242L11.6663 3.6494V3.65523Z" fill="#84A6FF"/>
</svg>
