<svg width="26" height="28" viewBox="0 0 26 28" fill="none" xmlns="http://www.w3.org/2000/svg">
<path d="M13.5458 3.49023H2.16666C1.09194 3.49023 0.220703 4.36147 0.220703 5.4362V17.7408C0.220703 18.8156 1.09194 19.6868 2.16666 19.6868H13.5458C14.6205 19.6868 15.4918 18.8156 15.4918 17.7408V5.4362C15.4918 4.36147 14.6205 3.49023 13.5458 3.49023Z" fill="#FEA30C"/>
<path d="M21.1806 11.5879H9.80143C8.72671 11.5879 7.85547 12.4591 7.85547 13.5339V25.8385C7.85547 26.9132 8.72671 27.7845 9.80143 27.7845H21.1806C22.2553 27.7845 23.1265 26.9132 23.1265 25.8385V13.5339C23.1265 12.4591 22.2553 11.5879 21.1806 11.5879Z" fill="#84A6FF"/>
<path d="M24.6847 0.0283203H17.7003C17.0406 0.0283203 16.5059 0.563082 16.5059 1.22274V8.77528C16.5059 9.43494 17.0406 9.9697 17.7003 9.9697H24.6847C25.3444 9.9697 25.8792 9.43494 25.8792 8.77528V1.22274C25.8792 0.563082 25.3444 0.0283203 24.6847 0.0283203Z" fill="#FF5B1C"/>
</svg>
