<svg width="34" height="23" viewBox="0 0 34 23" fill="none" xmlns="http://www.w3.org/2000/svg">
 <defs>
    <style>
      .cls-1 {
        stroke-width: 0px;
        fill: rgb(132 166 255 );
      }
    </style>
  </defs>
<path class="cls-1" d="M4.58621 12.9304C5.56821 17.4563 11.901 19.7913 18.7444 18.1415C22.0963 17.3166 24.7062 15.3396 25.7187 13.1093L24.6669 13.0395C23.6849 14.8377 21.3805 16.4176 18.5393 17.1333C12.2065 18.6783 6.37999 16.7013 5.53329 12.7122C4.65168 8.72311 9.09029 4.23212 15.3881 2.72203C20.3679 1.5 25.1077 2.04118 28.2588 3.83496L28.7345 2.97081C25.3477 1.02864 20.3679 0.456901 15.1874 1.71385C8.34834 3.36797 3.60422 8.39578 4.58621 12.9217V12.9304Z" fill="#84A6FF"/>
<path class="cls-1" d="M32.8634 8.1907C32.6583 7.2218 32.2524 6.35765 31.6763 5.56769L31.1438 6.45366C31.1438 6.45366 31.7418 7.6146 31.912 8.40456C32.4532 10.8486 31.4363 13.7204 29.2017 16.3085C26.8318 19.0406 23.3752 21.0526 19.552 21.9866C19.2814 22.0565 19.1111 22.3096 19.181 22.5976C19.2508 22.8857 19.4865 23.0297 19.7571 22.9948C28.0189 20.9828 34.1509 14.0827 32.8634 8.1907Z" fill="#84A6FF"/>
<path class="cls-1" d="M1.97606 14.0476C1.43488 11.6035 2.41687 8.73175 4.68637 6.14365C5.60289 5.10056 6.68527 4.13166 7.90294 3.30678L7.39667 2.44263C2.85768 5.56755 0.147374 10.2026 1.02899 14.2964C1.7753 17.7094 4.99188 20.1534 9.29083 21.0525L9.49596 20.0836C5.53306 19.2587 2.622 17.1027 1.97606 14.0476Z" fill="#84A6FF"/>
<path class="cls-1" d="M29.3061 9.55681C28.3241 5.03091 21.9913 2.69595 15.1479 4.3457C11.8615 5.13566 9.29084 7.07782 8.23901 9.26876L9.25592 9.37787C10.2379 7.61901 12.5074 6.03473 15.353 5.35388C21.6509 3.80887 27.4774 5.82087 28.3241 9.80995C29.2406 13.7641 24.802 18.2551 18.5041 19.8001C16.8718 20.2104 15.2439 20.4155 13.7033 20.4373L13.3978 21.4542C15.0999 21.4586 16.8893 21.2447 18.7093 20.769C25.5483 19.1149 30.2924 14.0871 29.3104 9.56118L29.3061 9.55681Z" fill="#84A6FF"/>
<path class="cls-1" d="M18.464 8.70581H14.3632C13.9758 8.70581 13.6619 9.00586 13.6619 9.37599V13.6136C13.6619 13.9838 13.9758 14.2838 14.3632 14.2838H18.464C18.8513 14.2838 19.1653 13.9838 19.1653 13.6136V9.37599C19.1653 9.00586 18.8513 8.70581 18.464 8.70581Z" fill="#84A6FF"/>
<path class="cls-1" d="M9.34267 2.52961C10.3596 2.06262 11.2368 1.79639 12.3541 1.54325C12.6247 1.47342 12.7949 1.22028 12.7251 0.932233C12.6553 0.644181 12.4196 0.46524 12.149 0.535071C10.9619 0.823122 9.84458 1.21592 8.79712 1.68291L9.34267 2.52525V2.52961Z" fill="#84A6FF"/>
</svg>
