<svg width="52" height="50" viewBox="0 0 52 50" fill="none" xmlns="http://www.w3.org/2000/svg">
<path d="M50.122 18.0983L37.0064 3.35807C36.1666 2.41635 35.0929 1.71312 33.8941 1.31952C32.6952 0.925927 31.4137 0.855925 30.1791 1.1166L10.8798 5.21459C10.8037 5.23109 10.7332 5.2672 10.6753 5.31935C10.6175 5.37151 10.5742 5.43788 10.5499 5.51189C10.5256 5.58591 10.5211 5.66499 10.5368 5.74129C10.5525 5.81759 10.5879 5.88847 10.6394 5.94688L26.2998 23.7364C26.3525 23.7963 26.4202 23.841 26.496 23.8658C26.5717 23.8907 26.6528 23.8949 26.7307 23.8779L49.8837 18.8313C49.9598 18.8146 50.0302 18.7782 50.0879 18.7259C50.1457 18.6736 50.1887 18.6071 50.2128 18.533C50.2369 18.4589 50.2412 18.3798 50.2252 18.3036C50.2093 18.2273 50.1737 18.1566 50.122 18.0983ZM29.7124 14.0581C28.3062 13.5965 27.4148 12.462 27.7228 11.5238C28.0309 10.5857 29.4212 10.2003 30.8274 10.662C32.2336 11.1237 33.125 12.2581 32.817 13.1963C32.509 14.1345 31.1186 14.5198 29.7124 14.0581ZM23.6624 26.0401L7.87441 8.23813C7.82213 8.17971 7.7554 8.13607 7.68093 8.1116C7.60645 8.08713 7.52685 8.08268 7.45011 8.09871C7.37338 8.11473 7.30221 8.15066 7.24375 8.20289C7.18529 8.25512 7.1416 8.32182 7.11707 8.39627L1.05711 26.8542C0.76673 27.7441 0.714371 28.6944 0.905237 29.6108C1.0961 30.5272 1.52354 31.3776 2.14505 32.0775L15.9671 48.0467C16.0193 48.1051 16.0861 48.1487 16.1605 48.1732C16.235 48.1977 16.3146 48.2021 16.3914 48.1861C16.4681 48.17 16.5393 48.1341 16.5977 48.0819C16.6562 48.0297 16.6999 47.963 16.7244 47.8885L23.7541 26.477C23.7784 26.4025 23.7828 26.323 23.7667 26.2463C23.7506 26.1696 23.7146 26.0985 23.6624 26.0401ZM5.20564 31.407C4.26746 31.099 3.88214 29.7086 4.34382 28.3024C4.8055 26.8962 5.93994 26.0048 6.87812 26.3128C7.8163 26.6208 8.20162 28.0112 7.73994 29.4174C7.27827 30.8236 6.14382 31.715 5.20564 31.407ZM16.509 31.3559C15.5708 31.0478 15.1855 29.6575 15.6472 28.2513C16.1089 26.8451 17.2433 25.9537 18.1815 26.2617C19.1197 26.5697 19.505 27.9601 19.0433 29.3663C18.5816 30.7725 17.4472 31.6639 16.509 31.3559ZM50.7494 22.3181L27.4569 27.3741C27.3804 27.3901 27.3094 27.4259 27.2511 27.4779C27.1927 27.53 27.149 27.5964 27.1244 27.6705L20.1212 49.0014C20.0968 49.0759 20.0925 49.1555 20.1086 49.2322C20.1247 49.3089 20.1608 49.38 20.2131 49.4384C20.2654 49.4968 20.3321 49.5404 20.4066 49.5649C20.4811 49.5893 20.5607 49.5937 20.6374 49.5776L41.2341 44.9086C42.1493 44.7135 42.9975 44.2824 43.6944 43.6579C44.3914 43.0334 44.9127 42.2375 45.2067 41.3491L51.2646 22.8975C51.2896 22.8229 51.2945 22.743 51.2787 22.6659C51.263 22.5889 51.2272 22.5173 51.1749 22.4585C51.1226 22.3997 51.0557 22.3558 50.981 22.3311C50.9063 22.3064 50.8264 22.3019 50.7494 22.3181ZM27.0273 45.1552C26.0891 44.8471 25.7038 43.4568 26.1654 42.0506C26.6271 40.6444 27.7616 39.753 28.6998 40.061C29.6379 40.369 30.0232 41.7594 29.5616 43.1656C29.0999 44.5718 27.9654 45.4632 27.0273 45.1552ZM30.0935 35.8158C29.1553 35.5078 28.77 34.1174 29.2317 32.7112C29.6933 31.305 30.8278 30.4136 31.766 30.7216C32.7042 31.0297 33.0895 32.42 32.6278 33.8262C32.1661 35.2324 31.0317 36.1238 30.0935 35.8158ZM39.1669 42.5569C38.2287 42.2489 37.8434 40.8585 38.305 39.4523C38.7667 38.0461 39.9012 37.1547 40.8394 37.4627C41.7775 37.7707 42.1628 39.1611 41.7012 40.5673C41.2395 41.9735 40.105 42.8649 39.1669 42.5569ZM42.2331 33.2176C41.2949 32.9096 40.9096 31.5192 41.3713 30.113C41.8329 28.7068 42.9674 27.8154 43.9056 28.1234C44.8438 28.4314 45.2291 29.8218 44.7674 31.228C44.3057 32.6342 43.1713 33.5256 42.2331 33.2176Z" fill="#FF5B1C"/>
</svg>
