<?xml version="1.0" encoding="UTF-8"?>
<svg id="Ebene_1" data-name="Ebene 1" xmlns="http://www.w3.org/2000/svg" viewBox="0 0 575 465" preserveAspectRatio="xMidYMid slice">
  <defs>
    <style>
      .cls-1, .cls-2, .cls-3, .cls-4 {
        stroke-width: 0px;
      }

      .cls-2 {
        fill: #ac05f1;
      }

      .cls-3 {
        fill: #84a6ff;
      }

      .cls-4 {
        fill: #ff5b1c;
      }
    </style>
  </defs>
  <rect class="cls-4" width="100%" height="100%" rx="28.7" ry="28.7"/>
  <path class="cls-1" d="m307.3,287.98c0,17.4-4.31,33.44-12.94,48.13-8.62,14.68-20.31,26.34-35.08,34.96-14.76,8.62-30.84,12.93-48.24,12.93s-33.48-4.31-48.24-12.93c-14.76-8.62-26.45-20.28-35.08-34.96-8.62-14.68-12.93-30.72-12.93-48.13s4.31-33.41,12.93-48.01c8.62-14.61,20.32-26.22,35.08-34.84,14.76-8.62,30.84-12.93,48.24-12.93s33.48,4.31,48.24,12.93c14.76,8.62,26.45,20.24,35.08,34.84,8.62,14.61,12.94,30.61,12.94,48.01Z"/>
  <rect class="cls-3" x="234.53" y="90.47" width="112.4" height="224.39"/>
  <path class="cls-2" d="m490.04,374h-85.07c0-7.6-1.9-14.69-5.7-21.27-3.8-6.58-8.99-11.76-15.57-15.57-6.58-3.8-13.67-5.7-21.27-5.7s-14.69,1.9-21.27,5.7c-6.58,3.8-11.76,8.99-15.57,15.57-3.8,6.58-5.7,13.67-5.7,21.27h-85.07c0-23.22,5.7-44.59,17.11-64.11,11.4-19.52,26.87-34.99,46.39-46.39,19.52-11.4,40.89-17.11,64.11-17.11s44.59,5.7,64.11,17.11c19.52,11.4,34.99,26.87,46.39,46.39,11.4,19.52,17.11,40.89,17.11,64.11Z"/>
</svg>