<?xml version="1.0" encoding="UTF-8"?>
<svg id="Ebene_1" data-name="Ebene 1" xmlns="http://www.w3.org/2000/svg" viewBox="0 0 575 465" preserveAspectRatio="xMidYMid slice">
  <defs>
    <style>
      .cls-1, .cls-2, .cls-3, .cls-4 {
        stroke-width: 0px;
      }

      .cls-2 {
        fill: #ac05f1;
      }

      .cls-3 {
        fill: #fea30c;
      }

      .cls-4 {
        fill: #ff5b1c;
      }
    </style>
  </defs>
  <rect class="cls-3" width="100%" height="100%" rx="28.7" ry="28.7"/>
  <polygon class="cls-1" points="146.91 367.94 291.47 215.07 341.05 261.95 424 174.24 294.33 51.61 66.82 292.2 146.91 367.94"/>
  <path class="cls-2" d="m332.51,407.13c35.67-8.48,66.43-24.96,92.29-49.44,25.86-24.49,43.97-53.88,54.32-88.19,10.35-34.31,11.29-69.3,2.82-104.96l-130.68,31.06c2.63,11.05,1.93,22.14-2.1,33.26-4.02,11.13-10.38,20.89-19.05,29.29-8.68,8.4-18.42,14.38-29.25,17.95l31.64,131.04Z"/>
  <path class="cls-4" d="m151.28,340.42l-15.96-15.96c-16.33-18.9-27.62-40.18-33.85-63.86-6.24-23.67-7.2-47.57-2.89-71.7,4.31-24.13,13.72-46.19,28.21-66.19l16.79-16.79,227.62,227.62c-19.63,19.63-42.66,33.12-69.08,40.46-26.42,7.34-52.98,8.12-79.68,2.34-26.7-5.78-50.41-17.75-71.15-35.92Z"/>
</svg>