<?xml version="1.0" encoding="UTF-8"?>
<svg id="Ebene_1" data-name="Ebene 1" xmlns="http://www.w3.org/2000/svg" viewBox="0 0 575 465" preserveAspectRatio="xMidYMid slice">
  <defs>
    <style>
      .cls-1, .cls-2, .cls-3, .cls-4 {
        stroke-width: 0px;
      }

      .cls-2 {
        fill: #3416f2;
      }

      .cls-3 {
        fill: #ac05f1;
      }

      .cls-4 {
        fill: #ff5b1c;
      }
    </style>
  </defs>
  <rect class="cls-2" width="100%" height="100%" rx="28.7" ry="28.7"/>
  <path class="cls-4" d="m141.28,326.42l-15.96-15.96c-16.33-18.9-27.62-40.18-33.85-63.86-6.24-23.67-7.2-47.57-2.89-71.7,4.31-24.13,13.72-46.19,28.21-66.19l16.79-16.79,227.62,227.62c-19.63,19.63-42.66,33.12-69.08,40.46-26.42,7.34-52.98,8.12-79.68,2.34-26.7-5.78-50.41-17.75-71.15-35.92Z"/>
  <polygon class="cls-1" points="269.53 402.96 184.48 61.52 297.19 61.52 336 222.13 336 402.96 269.53 402.96"/>
  <path class="cls-3" d="m467.09,163.48c0-15.06-3.71-28.91-11.14-41.56-7.43-12.65-17.47-22.69-30.12-30.12-12.65-7.43-26.5-11.14-41.56-11.14s-28.96,3.71-41.71,11.14c-12.75,7.43-22.84,17.47-30.27,30.12-7.43,12.65-11.14,26.5-11.14,41.56s3.66,28.96,10.99,41.71c7.33,12.75,17.37,22.84,30.12,30.27,12.75,7.43,26.75,11.14,42.01,11.14s28.91-3.71,41.56-11.14c12.65-7.43,22.69-17.52,30.12-30.27,7.43-12.75,11.14-26.65,11.14-41.71Z"/>
</svg>