<?xml version="1.0" encoding="UTF-8"?>
<svg id="Ebene_1" data-name="Ebene 1" xmlns="http://www.w3.org/2000/svg" viewBox="0 0 575 465" preserveAspectRatio="xMidYMid slice">
  <defs>
    <style>
      .cls-1 {
        fill: #6e0ff3;
      }

      .cls-1, .cls-2, .cls-3, .cls-4 {
        stroke-width: 0px;
      }

      .cls-2 {
        fill: #3416f2;
      }

      .cls-3 {
        fill: #84a6ff;
      }

      .cls-4 {
        fill: #ff5b1c;
      }
    </style>
  </defs>
  <rect class="cls-3" width="100%" height="100%" rx="28.7" ry="28.7"/>
  <polygon class="cls-2" points="253.29 52 423.76 52 97 379.15 97 213.02 253.29 52"/>
  <path class="cls-1" d="m504.22,257c0,25.95-6.4,49.9-19.2,71.87-12.8,21.97-30.18,39.35-52.15,52.15-21.97,12.8-45.92,19.2-71.87,19.2v-143.22h143.22Z"/>
  <path class="cls-4" d="m432.81,243.9c0,20.35-4.85,39.25-14.56,56.69-9.71,17.44-22.92,31.25-39.62,41.43-16.7,10.18-34.91,15.26-54.61,15.26s-37.84-5.09-54.4-15.26c-16.56-10.18-29.7-23.98-39.41-41.43-9.71-17.44-14.56-36.34-14.56-56.69s4.85-39.17,14.56-56.45c9.71-17.28,22.84-31.01,39.41-41.19,16.56-10.18,34.69-15.26,54.4-15.26s37.91,5.09,54.61,15.26c16.7,10.18,29.91,23.9,39.62,41.19,9.71,17.28,14.56,36.1,14.56,56.45Z"/>
</svg>