<?xml version="1.0" encoding="UTF-8"?>
<svg id="Ebene_1" data-name="Ebene 1" xmlns="http://www.w3.org/2000/svg" viewBox="0 0 1898 79.7">
  <defs>
    <style>
      .cls-1, .cls-2, .cls-3, .cls-4, .cls-5, .cls-6, .cls-7, .cls-8 {
        stroke-width: 0px;
      }

      .cls-2 {
        fill: #6e0ff3;
      }

      .cls-3 {
        fill: #3416f2;
      }

      .cls-4 {
        fill: #ac05f1;
      }

      .cls-5 {
        fill: #84a6ff;
      }

      .cls-6 {
        fill: #fea30c;
      }

      .cls-7 {
        fill: #ff5b1c;
      }

      .cls-8 {
        fill: #740689;
      }
    </style>
  </defs>
  <g>
    <path class="cls-3" d="m52.62,40.23V13.92h26.31v26.31h-26.31Zm-52.62,0V13.92h26.31v26.31H0Z"/>
    <rect class="cls-1" x="26.31" y=".76" width="26.31" height="39.47"/>
    <path class="cls-7" d="m65.78,79.6h0v-26.41c-2.35-.06-4.53-.7-6.53-1.91-2-1.21-3.61-2.8-4.81-4.77-1.21-1.97-1.81-4.1-1.81-6.39h-26.31c0,7.18,1.76,13.79,5.29,19.83,3.53,6.04,8.31,10.82,14.35,14.35,6.04,3.53,12.65,5.29,19.83,5.29Z"/>
  </g>
  <g>
    <polygon class="cls-1" points="72.26 79.51 89.71 79.51 151.1 18.21 151.1 .86 133.94 .86 72.36 62.16 72.26 79.51"/>
    <polygon class="cls-5" points="133.66 79.6 151.29 79.6 151.2 .76 133.56 .76 133.66 79.6"/>
    <path class="cls-3" d="m151.29,53.39l-70.26.1-8.68,8.68v4.29h78.94l-.1-9.82c0-2.22.03-3.3.1-3.24Z"/>
  </g>
  <g>
    <rect class="cls-1" x="161.87" y="61.59" width="78.94" height="17.45"/>
    <polygon class="cls-3" points="199.63 .38 240.91 .38 161.78 79.6 161.78 39.37 199.63 .38"/>
    <rect class="cls-7" x="223.37" y="50.91" width="17.45" height="28.12"/>
  </g>
  <g>
    <rect class="cls-1" x="244.72" y=".48" width="39.28" height="78.75"/>
    <path class="cls-8" d="m303.64,44.33c0-2.73-.68-5.26-2.05-7.58-1.37-2.32-3.21-4.16-5.53-5.53s-4.85-2.05-7.58-2.05-5.35.68-7.67,2.05-4.16,3.21-5.53,5.53c-1.37,2.32-2.05,4.85-2.05,7.58s.68,5.35,2.05,7.67c1.37,2.32,3.21,4.16,5.53,5.53s4.88,2.05,7.67,2.05,5.26-.68,7.58-2.05c2.32-1.37,4.16-3.21,5.53-5.53,1.37-2.32,2.05-4.88,2.05-7.67Z"/>
    <path class="cls-7" d="m323.47,68.74v10.68l-10.96.19-28.41-28.6v-4.39l17.45-.1,21.93,22.21Zm-39.37-45.95v10.68l10.96.19,28.41-28.6V.67l-17.45-.1-21.93,22.21Z"/>
  </g>
  <g>
    <path class="cls-1" d="m331.38,33.37v46.24h70.36v-46.24c-3.69,4.32-8.6,7.98-14.73,10.96-6.13,2.99-13.04,4.48-20.74,4.48s-14.55-1.49-20.59-4.48-10.8-6.64-14.3-10.96Z"/>
    <path class="cls-7" d="m369.23,40.33h-5.53c-6.1-.38-11.76-2.08-16.97-5.1-5.21-3.02-9.52-7.01-12.92-11.96-3.4-4.96-5.58-10.42-6.53-16.4V1.05h78.84c-.06,6.86-1.73,13.2-5.01,19.02-3.27,5.82-7.72,10.53-13.35,14.16-5.62,3.62-11.81,5.66-18.54,6.1Z"/>
  </g>
  <g>
    <polygon class="cls-4" points="488.87 54.91 443.68 .57 410.13 .57 410.13 11.92 466.85 79.41 488.87 79.51 488.87 54.91"/>
    <path class="cls-1" d="m473.62,79.6L453.98.76h26.03l8.96,37.08v41.76h-15.35Zm-48.33,0L444.92.76h-26.03l-8.96,37.08v41.76h15.35Z"/>
  </g>
  <g>
    <rect class="cls-3" x="492.78" y="1.15" width="26.6" height="78.46"/>
    <polygon class="cls-6" points="571.91 53.39 545.59 79.61 519.28 79.7 519.28 66.55 545.59 40.23 571.91 40.23 571.91 53.39"/>
    <path class="cls-1" d="m572,39.85h-48.62v13.16h35.94v26.5h12.87v-39.56h-.19v-.1ZM493.16.48v35.85h78.94V.48h-78.94Z"/>
  </g>
  <g>
    <path class="cls-8" d="m694.21.76c-3.94.38-7.63,2.29-11.06,5.72-3.43,3.43-5.91,8.55-7.44,15.35-1.65,7.31-4,12.22-7.05,14.73-3.05,2.51-5.91,3.77-8.58,3.77l-1.24-.1V.76h35.37Zm8.1,78.84c3.94-.38,7.63-2.27,11.06-5.67,3.43-3.4,5.91-8.5,7.44-15.3,1.65-7.25,4-12.11,7.05-14.59,3.05-2.48,5.91-3.72,8.58-3.72l1.24.1v39.18h-35.37Z"/>
    <path class="cls-1" d="m702.32.76c3.94.38,7.63,2.29,11.06,5.72,3.43,3.43,5.91,8.55,7.44,15.35,1.65,7.31,4,12.22,7.05,14.73,3.05,2.51,5.91,3.77,8.58,3.77l1.24-.1V.76h-35.37Zm-8.1,78.84c-3.94-.38-7.63-2.27-11.06-5.67-3.43-3.4-5.91-8.5-7.44-15.3-1.65-7.25-4-12.11-7.05-14.59-3.05-2.48-5.91-3.72-8.58-3.72l-1.24.1v39.18h35.37Z"/>
  </g>
  <g>
    <path class="cls-1" d="m775.54.86h-34.99v78.75h34.99l43.85-21.93-43.85-21.93V.86Zm44.04,22.21c0,4-1.08,7.72-3.24,11.15-2.16,3.43-5.1,6.15-8.82,8.15-3.72,2-7.77,3-12.16,3s-8.42-1-12.11-3c-3.69-2-6.61-4.72-8.77-8.15-2.16-3.43-3.24-7.15-3.24-11.15s1.08-7.71,3.24-11.11c2.16-3.4,5.08-6.1,8.77-8.1,3.69-2,7.72-3,12.11-3s8.44,1,12.16,3c3.72,2,6.66,4.7,8.82,8.1,2.16,3.4,3.24,7.1,3.24,11.11Z"/>
    <path class="cls-8" d="m740.55,79.6V.86h34.99v78.75h-34.99Zm79.03-56.53c0,4-1.08,7.72-3.24,11.15-2.16,3.43-5.1,6.15-8.82,8.15-3.72,2-7.77,3-12.16,3s-8.42-1-12.11-3c-3.69-2-6.61-4.72-8.77-8.15-2.16-3.43-3.24-7.15-3.24-11.15s1.08-7.71,3.24-11.11c2.16-3.4,5.08-6.1,8.77-8.1,3.69-2,7.72-3,12.11-3s8.44,1,12.16,3c3.72,2,6.66,4.7,8.82,8.1,2.16,3.4,3.24,7.1,3.24,11.11Z"/>
    <path class="cls-7" d="m740.55,79.6h34.99V.86h-34.99v78.75Zm79.03-56.53c0,4-1.08,7.72-3.24,11.15-2.16,3.43-5.1,6.15-8.82,8.15-3.72,2-7.77,3-12.16,3s-8.42-1-12.11-3c-3.69-2-6.61-4.72-8.77-8.15-2.16-3.43-3.24-7.15-3.24-11.15s1.08-7.71,3.24-11.11c2.16-3.4,5.08-6.1,8.77-8.1,3.69-2,7.72-3,12.11-3s8.44,1,12.16,3c3.72,2,6.66,4.7,8.82,8.1,2.16,3.4,3.24,7.1,3.24,11.11Z"/>
    <rect class="cls-6" x="740.55" y=".86" width="34.99" height="78.75"/>
  </g>
  <g>
    <polygon class="cls-6" points="841.98 50.81 824.54 50.81 824.54 61.97 824.34 61.97 824.34 79.41 903.28 79.41 903.28 61.97 841.98 61.97 841.98 50.81"/>
    <rect class="cls-1" x="863.43" y=".86" width="39.85" height="78.75"/>
    <rect class="cls-4" x="824.44" y=".67" width="78.94" height="17.45"/>
  </g>
  <g>
    <path class="cls-1" d="m991.75,79.6v-22.21l-26.31,11.15v11.06h26.31Zm0-78.84v22.21l-26.31-11.15V.76h26.31Z"/>
    <path class="cls-2" d="m991.66,51.19c0-4.77-1.18-9.17-3.53-13.2-2.35-4.04-5.53-7.23-9.53-9.58-4-2.35-8.39-3.53-13.16-3.53v26.31h26.22Z"/>
    <rect class="cls-7" x="912.91" y=".95" width="52.53" height="78.56"/>
  </g>
  <g>
    <path class="cls-1" d="m995.57,40.23l26.41-.1c0,2.42.59,4.64,1.76,6.67,1.18,2.03,2.76,3.62,4.77,4.77,2,1.14,4.18,1.72,6.53,1.72v26.31c-7.12,0-13.68-1.76-19.69-5.29s-10.79-8.31-14.35-14.35c-3.56-6.04-5.37-12.62-5.43-19.73Z"/>
    <path class="cls-2" d="m1061.26,53.29c0,4.77-1.18,9.17-3.53,13.2-2.35,4.04-5.55,7.23-9.58,9.58s-8.44,3.53-13.2,3.53v-26.31h26.31Z"/>
    <path class="cls-4" d="m1074.6,40.23h-26.31c0-2.35-.59-4.54-1.76-6.58-1.18-2.03-2.78-3.64-4.81-4.81s-4.23-1.76-6.58-1.76-4.54.59-6.58,1.76c-2.03,1.18-3.64,2.78-4.81,4.81-1.18,2.03-1.76,4.23-1.76,6.58h-26.31c0-7.18,1.76-13.79,5.29-19.83,3.53-6.04,8.31-10.82,14.35-14.35,6.04-3.53,12.65-5.29,19.83-5.29s13.79,1.76,19.83,5.29c6.04,3.53,10.82,8.31,14.35,14.35,3.53,6.04,5.29,12.65,5.29,19.83Z"/>
  </g>
  <g>
    <path class="cls-3" d="m1131.04,40.23V13.92h26.31v26.31h-26.31Zm-52.62,0V13.92h26.31v26.31h-26.31Z"/>
    <rect class="cls-1" x="1104.73" y=".76" width="26.31" height="39.47"/>
    <path class="cls-7" d="m1144.19,79.6h0v-26.41c-2.35-.06-4.53-.7-6.53-1.91-2-1.21-3.61-2.8-4.81-4.77s-1.81-4.1-1.81-6.39h-26.31c0,7.18,1.76,13.79,5.29,19.83s8.31,10.82,14.35,14.35c6.04,3.53,12.65,5.29,19.83,5.29Z"/>
  </g>
  <g>
    <polygon class="cls-3" points="1200.16 27.36 1165.74 27.27 1200.35 53.58 1235.43 53.58 1200.16 27.36"/>
    <rect class="cls-4" x="1161.17" y="53.58" width="74.36" height="26.03"/>
    <path class="cls-1" d="m1235.43,27.17h-34.99V.86c6.36,0,12.2,1.18,17.54,3.53,5.34,2.35,9.58,5.53,12.73,9.53s4.72,8.39,4.72,13.16v.1Zm-69.88.19h34.99V1.05c-6.36,0-12.22,1.18-17.59,3.53-5.37,2.35-9.61,5.53-12.73,9.53-3.11,4-4.67,8.39-4.67,13.16v.1Z"/>
  </g>
  <g>
    <polygon class="cls-1" points="1321.22 79.51 1338.67 79.51 1400.06 18.21 1400.06 .86 1382.9 .86 1321.32 62.16 1321.22 79.51"/>
    <polygon class="cls-5" points="1382.62 79.6 1400.25 79.6 1400.16 .76 1382.52 .76 1382.62 79.6"/>
    <path class="cls-3" d="m1400.25,53.39l-70.26.1-8.68,8.68v4.29h78.94l-.1-9.82c0-2.22.03-3.3.1-3.24Z"/>
  </g>
  <g>
    <path class="cls-1" d="m1431.24,79.6V0h-26.22v79.6h26.22Zm-.95-44.23v13.16l11.44.1c7.63,0,14.46-.54,20.5-1.62,6.04-1.08,11.15-3.42,15.35-7.01,4.19-3.59,6.29-8.82,6.29-15.68s-2.1-12.08-6.29-15.63c-4.19-3.56-9.31-5.88-15.35-6.96-6.04-1.08-12.87-1.62-20.5-1.62l-11.44.1v13.25l5.82-.1c7.25,0,13.62.73,19.11,2.19,5.5,1.46,8.25,4.39,8.25,8.77s-2.81,7.42-8.44,8.91c-5.62,1.49-12.06,2.24-19.31,2.24l-5.43-.1Z"/>
    <polygon class="cls-5" points="1444.21 79.22 1483.68 79.22 1470.52 44.14 1444.21 44.14 1444.21 79.22"/>
  </g>
  <g>
    <path class="cls-1" d="m1487.68,40.23l26.41-.1c0,2.42.59,4.64,1.76,6.67,1.18,2.03,2.76,3.62,4.77,4.77s4.18,1.72,6.53,1.72v26.31c-7.12,0-13.68-1.76-19.69-5.29-6.01-3.53-10.79-8.31-14.35-14.35-3.56-6.04-5.37-12.62-5.43-19.73Z"/>
    <path class="cls-2" d="m1553.37,53.29c0,4.77-1.18,9.17-3.53,13.2-2.35,4.04-5.55,7.23-9.58,9.58s-8.44,3.53-13.2,3.53v-26.31h26.31Z"/>
    <path class="cls-4" d="m1566.71,40.23h-26.31c0-2.35-.59-4.54-1.76-6.58s-2.78-3.64-4.81-4.81c-2.03-1.18-4.23-1.76-6.58-1.76s-4.54.59-6.58,1.76-3.64,2.78-4.81,4.81c-1.18,2.03-1.76,4.23-1.76,6.58h-26.31c0-7.18,1.76-13.79,5.29-19.83,3.53-6.04,8.31-10.82,14.35-14.35s12.65-5.29,19.83-5.29,13.79,1.76,19.83,5.29c6.04,3.53,10.82,8.31,14.35,14.35s5.29,12.65,5.29,19.83Z"/>
  </g>
  <g>
    <path class="cls-7" d="m1649.37,79.6V.86h-30.6v78.75h30.6Zm-48.43,0V.86h-30.41v78.75h30.41Z"/>
    <polygon class="cls-1" points="1600.94 44.81 1631.54 57.96 1631.54 31.65 1600.94 31.65 1600.94 44.81"/>
  </g>
  <g>
    <path class="cls-1" d="m1657.28,33.37v46.24h70.36v-46.24c-3.69,4.32-8.6,7.98-14.73,10.96-6.13,2.99-13.04,4.48-20.74,4.48s-14.55-1.49-20.59-4.48c-6.04-2.99-10.8-6.64-14.3-10.96Z"/>
    <path class="cls-7" d="m1695.13,40.33h-5.53c-6.1-.38-11.76-2.08-16.97-5.1-5.21-3.02-9.52-7.01-12.92-11.96-3.4-4.96-5.58-10.42-6.53-16.4V1.05h78.84c-.06,6.86-1.73,13.2-5.01,19.02-3.27,5.82-7.72,10.53-13.35,14.16-5.62,3.62-11.81,5.66-18.54,6.1Z"/>
  </g>
  <g>
    <path class="cls-1" d="m1774.83,79.6c2.8-.44,5.58-2.18,8.34-5.2,2.76-3.02,5.28-7.59,7.53-13.73,2.26-6.13,3.99-13.84,5.2-23.12,1.33-10.17,3.11-17.99,5.34-23.45,2.22-5.47,4.43-9.06,6.63-10.77,2.19-1.72,4.18-2.57,5.96-2.57.57,0,1.02.06,1.33.19v78.65h-40.33Z"/>
    <path class="cls-7" d="m1776.16,79.6c-2.8-.44-5.58-2.18-8.34-5.2-2.76-3.02-5.28-7.59-7.53-13.73-2.26-6.13-3.99-13.84-5.2-23.12-1.33-10.17-3.11-17.99-5.34-23.45-2.22-5.47-4.43-9.06-6.63-10.77-2.19-1.72-4.18-2.57-5.96-2.57-.57,0-1.02.06-1.33.19v78.65h40.33Z"/>
  </g>
  <g>
    <rect class="cls-7" x="1819.06" y="61.97" width="78.94" height="17.45"/>
    <rect class="cls-1" x="1819.06" y=".86" width="21.74" height="78.75"/>
    <path class="cls-8" d="m1897.9,47.76v-17.45h-78.94v17.45h78.94Zm-78.94-29.65h78.94V.67h-78.94v17.45Z"/>
  </g>
</svg>