<?xml version="1.0" encoding="UTF-8"?>
<svg id="Ebene_1" data-name="Ebene 1" xmlns="http://www.w3.org/2000/svg" viewBox="0 0 809.53 281.22">
  <defs>
    <style>
      .cls-1, .cls-2, .cls-3, .cls-4, .cls-5, .cls-6, .cls-7, .cls-8 {
        stroke-width: 0px;
      }

      .cls-2 {
        fill: #6e0ff3;
      }

      .cls-3 {
        fill: #3416f2;
      }

      .cls-4 {
        fill: #ac05f1;
      }

      .cls-5 {
        fill: #84a6ff;
      }

      .cls-6 {
        fill: #fea30c;
      }

      .cls-7 {
        fill: #ff5b1c;
      }

      .cls-8 {
        fill: #740689;
      }
    </style>
  </defs>
  <g>
    <g>
      <polygon class="cls-1" points=".22 281.13 17.67 281.13 79.06 219.83 79.06 202.48 61.9 202.48 .32 263.78 .22 281.13"/>
      <polygon class="cls-5" points="61.62 281.22 79.25 281.22 79.16 202.38 61.52 202.38 61.62 281.22"/>
      <path class="cls-3" d="m79.25,255.01l-70.26.1-8.68,8.68v4.29h78.94l-.1-9.82c0-2.22.03-3.3.1-3.24Z"/>
    </g>
    <g>
      <path class="cls-1" d="m110.24,281.22v-79.6h-26.22v79.6h26.22Zm-.95-44.23v13.16l11.44.1c7.63,0,14.46-.54,20.5-1.62,6.04-1.08,11.15-3.42,15.35-7.01,4.19-3.59,6.29-8.82,6.29-15.68s-2.1-12.08-6.29-15.63c-4.19-3.56-9.31-5.88-15.35-6.96-6.04-1.08-12.87-1.62-20.5-1.62l-11.44.1v13.25l5.82-.1c7.25,0,13.62.73,19.11,2.19,5.5,1.46,8.25,4.39,8.25,8.77s-2.81,7.42-8.44,8.91c-5.62,1.49-12.06,2.24-19.31,2.24l-5.43-.1Z"/>
      <polygon class="cls-5" points="123.21 280.84 162.68 280.84 149.52 245.76 123.21 245.76 123.21 280.84"/>
    </g>
    <g>
      <path class="cls-1" d="m166.68,241.85l26.41-.1c0,2.42.59,4.64,1.76,6.67,1.18,2.03,2.76,3.62,4.77,4.77s4.18,1.72,6.53,1.72v26.31c-7.12,0-13.68-1.76-19.69-5.29-6.01-3.53-10.79-8.31-14.35-14.35-3.56-6.04-5.37-12.62-5.43-19.73Z"/>
      <path class="cls-2" d="m232.37,254.91c0,4.77-1.18,9.17-3.53,13.2-2.35,4.04-5.55,7.23-9.58,9.58s-8.44,3.53-13.2,3.53v-26.31h26.31Z"/>
      <path class="cls-4" d="m245.71,241.85h-26.31c0-2.35-.59-4.54-1.76-6.58s-2.78-3.64-4.81-4.81c-2.03-1.18-4.23-1.76-6.58-1.76s-4.54.59-6.58,1.76-3.64,2.78-4.81,4.81c-1.18,2.03-1.76,4.23-1.76,6.58h-26.31c0-7.18,1.76-13.79,5.29-19.83,3.53-6.04,8.31-10.82,14.35-14.35s12.65-5.29,19.83-5.29,13.79,1.76,19.83,5.29c6.04,3.53,10.82,8.31,14.35,14.35s5.29,12.65,5.29,19.83Z"/>
    </g>
    <g>
      <path class="cls-7" d="m328.37,281.22v-78.75h-30.6v78.75h30.6Zm-48.43,0v-78.75h-30.41v78.75h30.41Z"/>
      <polygon class="cls-1" points="279.94 246.43 310.54 259.58 310.54 233.27 279.94 233.27 279.94 246.43"/>
    </g>
    <g>
      <path class="cls-1" d="m336.28,234.99v46.24h70.36v-46.24c-3.69,4.32-8.6,7.98-14.73,10.96-6.13,2.99-13.04,4.48-20.74,4.48s-14.55-1.49-20.59-4.48c-6.04-2.99-10.8-6.64-14.3-10.96Z"/>
      <path class="cls-7" d="m374.13,241.94h-5.53c-6.1-.38-11.76-2.08-16.97-5.1-5.21-3.02-9.52-7.01-12.92-11.96-3.4-4.96-5.58-10.42-6.53-16.4v-5.82h78.84c-.06,6.86-1.73,13.2-5.01,19.02-3.27,5.82-7.72,10.53-13.35,14.16-5.62,3.62-11.81,5.66-18.54,6.1Z"/>
    </g>
    <g>
      <path class="cls-1" d="m453.83,281.22c2.8-.44,5.58-2.18,8.34-5.2,2.76-3.02,5.28-7.59,7.53-13.73,2.26-6.13,3.99-13.84,5.2-23.12,1.33-10.17,3.11-17.99,5.34-23.45,2.22-5.47,4.43-9.06,6.63-10.77,2.19-1.72,4.18-2.57,5.96-2.57.57,0,1.02.06,1.33.19v78.65h-40.33Z"/>
      <path class="cls-7" d="m455.16,281.22c-2.8-.44-5.58-2.18-8.34-5.2-2.76-3.02-5.28-7.59-7.53-13.73-2.26-6.13-3.99-13.84-5.2-23.12-1.33-10.17-3.11-17.99-5.34-23.45-2.22-5.47-4.43-9.06-6.63-10.77-2.19-1.72-4.18-2.57-5.96-2.57-.57,0-1.02.06-1.33.19v78.65h40.33Z"/>
    </g>
    <g>
      <rect class="cls-7" x="498.06" y="263.59" width="78.94" height="17.45"/>
      <rect class="cls-1" x="498.06" y="202.48" width="21.74" height="78.75"/>
      <path class="cls-8" d="m576.9,249.38v-17.45h-78.94v17.45h78.94Zm-78.94-29.65h78.94v-17.45h-78.94v17.45Z"/>
    </g>
  </g>
  <g>
    <g>
      <path class="cls-8" d="m268.21,103.38c-3.94.38-7.63,2.29-11.06,5.72-3.43,3.43-5.91,8.55-7.44,15.35-1.65,7.31-4,12.22-7.05,14.73-3.05,2.51-5.91,3.77-8.58,3.77l-1.24-.1v-39.47h35.37Zm8.1,78.84c3.94-.38,7.63-2.27,11.06-5.67,3.43-3.4,5.91-8.5,7.44-15.3,1.65-7.25,4-12.11,7.05-14.59,3.05-2.48,5.91-3.72,8.58-3.72l1.24.1v39.18h-35.37Z"/>
      <path class="cls-1" d="m276.32,103.38c3.94.38,7.63,2.29,11.06,5.72,3.43,3.43,5.91,8.55,7.44,15.35,1.65,7.31,4,12.22,7.05,14.73,3.05,2.51,5.91,3.77,8.58,3.77l1.24-.1v-39.47h-35.37Zm-8.1,78.84c-3.94-.38-7.63-2.27-11.06-5.67-3.43-3.4-5.91-8.5-7.44-15.3-1.65-7.25-4-12.11-7.05-14.59-3.05-2.48-5.91-3.72-8.58-3.72l-1.24.1v39.18h35.37Z"/>
    </g>
    <g>
      <path class="cls-1" d="m349.54,103.48h-34.99v78.75h34.99l43.85-21.93-43.85-21.93v-34.89Zm44.04,22.21c0,4-1.08,7.72-3.24,11.15-2.16,3.43-5.1,6.15-8.82,8.15-3.72,2-7.77,3-12.16,3s-8.42-1-12.11-3c-3.69-2-6.61-4.72-8.77-8.15-2.16-3.43-3.24-7.15-3.24-11.15s1.08-7.71,3.24-11.11c2.16-3.4,5.08-6.1,8.77-8.1,3.69-2,7.72-3,12.11-3s8.44,1,12.16,3c3.72,2,6.66,4.7,8.82,8.1,2.16,3.4,3.24,7.1,3.24,11.11Z"/>
      <path class="cls-8" d="m314.55,182.22v-78.75h34.99v78.75h-34.99Zm79.03-56.53c0,4-1.08,7.72-3.24,11.15-2.16,3.43-5.1,6.15-8.82,8.15-3.72,2-7.77,3-12.16,3s-8.42-1-12.11-3c-3.69-2-6.61-4.72-8.77-8.15-2.16-3.43-3.24-7.15-3.24-11.15s1.08-7.71,3.24-11.11c2.16-3.4,5.08-6.1,8.77-8.1,3.69-2,7.72-3,12.11-3s8.44,1,12.16,3c3.72,2,6.66,4.7,8.82,8.1,2.16,3.4,3.24,7.1,3.24,11.11Z"/>
      <path class="cls-7" d="m314.55,182.22h34.99v-78.75h-34.99v78.75Zm79.03-56.53c0,4-1.08,7.72-3.24,11.15-2.16,3.43-5.1,6.15-8.82,8.15-3.72,2-7.77,3-12.16,3s-8.42-1-12.11-3c-3.69-2-6.61-4.72-8.77-8.15-2.16-3.43-3.24-7.15-3.24-11.15s1.08-7.71,3.24-11.11c2.16-3.4,5.08-6.1,8.77-8.1,3.69-2,7.72-3,12.11-3s8.44,1,12.16,3c3.72,2,6.66,4.7,8.82,8.1,2.16,3.4,3.24,7.1,3.24,11.11Z"/>
      <rect class="cls-6" x="314.55" y="103.48" width="34.99" height="78.75"/>
    </g>
    <g>
      <polygon class="cls-6" points="415.98 153.43 398.54 153.43 398.54 164.59 398.34 164.59 398.34 182.03 477.28 182.03 477.28 164.59 415.98 164.59 415.98 153.43"/>
      <rect class="cls-1" x="437.43" y="103.48" width="39.85" height="78.75"/>
      <rect class="cls-4" x="398.44" y="103.29" width="78.94" height="17.45"/>
    </g>
    <g>
      <path class="cls-1" d="m565.75,182.22v-22.21l-26.31,11.15v11.06h26.31Zm0-78.84v22.21l-26.31-11.15v-11.06h26.31Z"/>
      <path class="cls-2" d="m565.66,153.81c0-4.77-1.18-9.17-3.53-13.2-2.35-4.04-5.53-7.23-9.53-9.58-4-2.35-8.39-3.53-13.16-3.53v26.31h26.22Z"/>
      <rect class="cls-7" x="486.91" y="103.57" width="52.53" height="78.56"/>
    </g>
    <g>
      <path class="cls-1" d="m569.57,142.85l26.41-.1c0,2.42.59,4.64,1.76,6.67,1.18,2.03,2.76,3.62,4.77,4.77,2,1.14,4.18,1.72,6.53,1.72v26.31c-7.12,0-13.68-1.76-19.69-5.29s-10.79-8.31-14.35-14.35c-3.56-6.04-5.37-12.62-5.43-19.73Z"/>
      <path class="cls-2" d="m635.26,155.91c0,4.77-1.18,9.17-3.53,13.2-2.35,4.04-5.55,7.23-9.58,9.58s-8.44,3.53-13.2,3.53v-26.31h26.31Z"/>
      <path class="cls-4" d="m648.6,142.85h-26.31c0-2.35-.59-4.54-1.76-6.58-1.18-2.03-2.78-3.64-4.81-4.81s-4.23-1.76-6.58-1.76-4.54.59-6.58,1.76c-2.03,1.18-3.64,2.78-4.81,4.81-1.18,2.03-1.76,4.23-1.76,6.58h-26.31c0-7.18,1.76-13.79,5.29-19.83,3.53-6.04,8.31-10.82,14.35-14.35,6.04-3.53,12.65-5.29,19.83-5.29s13.79,1.76,19.83,5.29c6.04,3.53,10.82,8.31,14.35,14.35,3.53,6.04,5.29,12.65,5.29,19.83Z"/>
    </g>
    <g>
      <path class="cls-3" d="m705.04,142.85v-26.31h26.31v26.31h-26.31Zm-52.62,0v-26.31h26.31v26.31h-26.31Z"/>
      <rect class="cls-1" x="678.73" y="103.38" width="26.31" height="39.47"/>
      <path class="cls-7" d="m718.19,182.22h0v-26.41c-2.35-.06-4.53-.7-6.53-1.91-2-1.21-3.61-2.8-4.81-4.77s-1.81-4.1-1.81-6.39h-26.31c0,7.18,1.76,13.79,5.29,19.83s8.31,10.82,14.35,14.35c6.04,3.53,12.65,5.29,19.83,5.29Z"/>
    </g>
    <g>
      <polygon class="cls-3" points="774.16 129.98 739.74 129.88 774.35 156.2 809.43 156.2 774.16 129.98"/>
      <rect class="cls-4" x="735.17" y="156.2" width="74.36" height="26.03"/>
      <path class="cls-1" d="m809.43,129.79h-34.99v-26.31c6.36,0,12.2,1.18,17.54,3.53,5.34,2.35,9.58,5.53,12.73,9.53s4.72,8.39,4.72,13.16v.1Zm-69.88.19h34.99v-26.31c-6.36,0-12.22,1.18-17.59,3.53-5.37,2.35-9.61,5.53-12.73,9.53-3.11,4-4.67,8.39-4.67,13.16v.1Z"/>
    </g>
  </g>
  <g>
    <g>
      <path class="cls-3" d="m52.62,39.85V13.54h26.31v26.31h-26.31Zm-52.62,0V13.54h26.31v26.31H0Z"/>
      <rect class="cls-1" x="26.31" y=".38" width="26.31" height="39.47"/>
      <path class="cls-7" d="m65.78,79.22h0v-26.41c-2.35-.06-4.53-.7-6.53-1.91-2-1.21-3.61-2.8-4.81-4.77-1.21-1.97-1.81-4.1-1.81-6.39h-26.31c0,7.18,1.76,13.79,5.29,19.83,3.53,6.04,8.31,10.82,14.35,14.35,6.04,3.53,12.65,5.29,19.83,5.29Z"/>
    </g>
    <g>
      <polygon class="cls-1" points="72.26 79.13 89.71 79.13 151.1 17.83 151.1 .48 133.94 .48 72.36 61.78 72.26 79.13"/>
      <polygon class="cls-5" points="133.66 79.22 151.29 79.22 151.2 .38 133.56 .38 133.66 79.22"/>
      <path class="cls-3" d="m151.29,53.01l-70.26.1-8.68,8.68v4.29h78.94l-.1-9.82c0-2.22.03-3.3.1-3.24Z"/>
    </g>
    <g>
      <rect class="cls-1" x="161.87" y="61.2" width="78.94" height="17.45"/>
      <polygon class="cls-3" points="199.63 0 240.91 0 161.78 79.22 161.78 38.99 199.63 0"/>
      <rect class="cls-7" x="223.37" y="50.53" width="17.45" height="28.12"/>
    </g>
    <g>
      <rect class="cls-1" x="244.72" y=".1" width="39.28" height="78.75"/>
      <path class="cls-8" d="m303.64,43.95c0-2.73-.68-5.26-2.05-7.58-1.37-2.32-3.21-4.16-5.53-5.53s-4.85-2.05-7.58-2.05-5.35.68-7.67,2.05-4.16,3.21-5.53,5.53c-1.37,2.32-2.05,4.85-2.05,7.58s.68,5.35,2.05,7.67c1.37,2.32,3.21,4.16,5.53,5.53s4.88,2.05,7.67,2.05,5.26-.68,7.58-2.05c2.32-1.37,4.16-3.21,5.53-5.53,1.37-2.32,2.05-4.88,2.05-7.67Z"/>
      <path class="cls-7" d="m323.47,68.36v10.68l-10.96.19-28.41-28.6v-4.39l17.45-.1,21.93,22.21Zm-39.37-45.95v10.68l10.96.19,28.41-28.6V.29l-17.45-.1-21.93,22.21Z"/>
    </g>
    <g>
      <path class="cls-1" d="m331.38,32.99v46.24h70.36v-46.24c-3.69,4.32-8.6,7.98-14.73,10.96-6.13,2.99-13.04,4.48-20.74,4.48s-14.55-1.49-20.59-4.48-10.8-6.64-14.3-10.96Z"/>
      <path class="cls-7" d="m369.23,39.94h-5.53c-6.1-.38-11.76-2.08-16.97-5.1-5.21-3.02-9.52-7.01-12.92-11.96-3.4-4.96-5.58-10.42-6.53-16.4V.67h78.84c-.06,6.86-1.73,13.2-5.01,19.02-3.27,5.82-7.72,10.53-13.35,14.16-5.62,3.62-11.81,5.66-18.54,6.1Z"/>
    </g>
    <g>
      <polygon class="cls-4" points="488.87 54.53 443.68 .19 410.13 .19 410.13 11.54 466.85 79.03 488.87 79.13 488.87 54.53"/>
      <path class="cls-1" d="m473.62,79.22L453.98.38h26.03l8.96,37.08v41.76h-15.35Zm-48.33,0L444.92.38h-26.03l-8.96,37.08v41.76h15.35Z"/>
    </g>
    <g>
      <rect class="cls-3" x="492.78" y=".77" width="26.6" height="78.46"/>
      <polygon class="cls-6" points="571.91 53.01 545.59 79.23 519.28 79.32 519.28 66.17 545.59 39.85 571.91 39.85 571.91 53.01"/>
      <path class="cls-1" d="m572,39.47h-48.62v13.16h35.94v26.5h12.87v-39.56h-.19v-.1ZM493.16.1v35.85h78.94V.1h-78.94Z"/>
    </g>
  </g>
</svg>